<svg width="4252" height="800" viewBox="0 0 4252 800" fill="none" xmlns="http://www.w3.org/2000/svg">
<g id="Group 1">
<g id="icon">
<g id="Group 2">
<circle id="Ellipse 1" cx="400" cy="400" r="400" fill="url(#grad1)"/>
<rect id="Rectangle 1" x="176" y="176" width="448" height="448" fill="white"/>
<g id="Ellipse 3" style="mix-blend-mode:multiply">
<circle cx="400" cy="400" r="256" fill="url(#grad1)"/>
</g>
<circle id="Ellipse 2" cx="400" cy="400" r="240" fill="white"/>
<circle id="Ellipse 4" cx="400" cy="400" r="176" fill="url(#grad1)" />
</g>
</g>
<g id="textid" clip-path="url(#clip0)">
<g id="text" filter="url(#filter0_d)">
<path d="M1123.5 317.475C1123.5 336.025 1120.41 353.233 1114.23 369.1C1108.16 384.85 1099.53 398.5 1088.33 410.05C1077.13 421.6 1063.65 430.642 1047.9 437.175C1032.15 443.592 1014.65 446.8 995.4 446.8C976.267 446.8 958.825 443.592 943.075 437.175C927.325 430.642 913.792 421.6 902.475 410.05C891.275 398.5 882.583 384.85 876.4 369.1C870.217 353.233 867.125 336.025 867.125 317.475C867.125 298.925 870.217 281.775 876.4 266.025C882.583 250.158 891.275 236.45 902.475 224.9C913.792 213.35 927.325 204.367 943.075 197.95C958.825 191.417 976.267 188.15 995.4 188.15C1008.23 188.15 1020.31 189.667 1031.63 192.7C1042.94 195.617 1053.33 199.817 1062.78 205.3C1072.23 210.667 1080.68 217.258 1088.15 225.075C1095.73 232.775 1102.15 241.408 1107.4 250.975C1112.65 260.542 1116.62 270.925 1119.3 282.125C1122.1 293.325 1123.5 305.108 1123.5 317.475ZM1075.38 317.475C1075.38 303.592 1073.51 291.167 1069.78 280.2C1066.04 269.117 1060.73 259.725 1053.85 252.025C1046.97 244.325 1038.57 238.433 1028.65 234.35C1018.85 230.267 1007.77 228.225 995.4 228.225C983.033 228.225 971.892 230.267 961.975 234.35C952.175 238.433 943.775 244.325 936.775 252.025C929.892 259.725 924.583 269.117 920.85 280.2C917.117 291.167 915.25 303.592 915.25 317.475C915.25 331.358 917.117 343.842 920.85 354.925C924.583 365.892 929.892 375.225 936.775 382.925C943.775 390.508 952.175 396.342 961.975 400.425C971.892 404.508 983.033 406.55 995.4 406.55C1007.77 406.55 1018.85 404.508 1028.65 400.425C1038.57 396.342 1046.97 390.508 1053.85 382.925C1060.73 375.225 1066.04 365.892 1069.78 354.925C1073.51 343.842 1075.38 331.358 1075.38 317.475ZM1439.24 190.95V444H1397.77V280.55C1397.77 274.017 1398.12 266.958 1398.82 259.375L1322.34 403.05C1318.72 409.933 1313.18 413.375 1305.72 413.375H1299.07C1291.6 413.375 1286.06 409.933 1282.44 403.05L1205.09 258.85C1205.44 262.7 1205.73 266.492 1205.97 270.225C1206.2 273.958 1206.32 277.4 1206.32 280.55V444H1164.84V190.95H1200.37C1202.47 190.95 1204.27 191.008 1205.79 191.125C1207.31 191.242 1208.65 191.533 1209.82 192C1211.1 192.467 1212.21 193.225 1213.14 194.275C1214.19 195.325 1215.18 196.725 1216.12 198.475L1291.89 339C1293.87 342.733 1295.68 346.583 1297.32 350.55C1299.07 354.517 1300.76 358.6 1302.39 362.8C1304.02 358.483 1305.72 354.342 1307.47 350.375C1309.22 346.292 1311.08 342.383 1313.07 338.65L1387.79 198.475C1388.72 196.725 1389.72 195.325 1390.77 194.275C1391.82 193.225 1392.92 192.467 1394.09 192C1395.37 191.533 1396.77 191.242 1398.29 191.125C1399.81 191.008 1401.62 190.95 1403.72 190.95H1439.24ZM1709.03 190.95V444H1684.88C1681.14 444 1677.99 443.417 1675.43 442.25C1672.98 440.967 1670.58 438.867 1668.25 435.95L1536.13 267.25C1536.83 274.95 1537.18 282.067 1537.18 288.6V444H1495.7V190.95H1520.38C1522.36 190.95 1524.05 191.067 1525.45 191.3C1526.97 191.417 1528.25 191.767 1529.3 192.35C1530.47 192.817 1531.58 193.575 1532.63 194.625C1533.68 195.558 1534.84 196.842 1536.13 198.475L1668.78 367.875C1668.43 363.792 1668.13 359.767 1667.9 355.8C1667.67 351.833 1667.55 348.158 1667.55 344.775V190.95H1709.03ZM1812.63 444H1765.38V190.95H1812.63V444ZM2089.14 236.975C2087.74 239.425 2086.23 241.233 2084.59 242.4C2083.08 243.45 2081.15 243.975 2078.82 243.975C2076.37 243.975 2073.68 243.1 2070.77 241.35C2067.97 239.483 2064.58 237.442 2060.62 235.225C2056.65 233.008 2051.98 231.025 2046.62 229.275C2041.37 227.408 2035.13 226.475 2027.89 226.475C2021.36 226.475 2015.64 227.292 2010.74 228.925C2005.84 230.442 2001.7 232.6 1998.32 235.4C1995.05 238.2 1992.6 241.583 1990.97 245.55C1989.33 249.4 1988.52 253.658 1988.52 258.325C1988.52 264.275 1990.15 269.233 1993.42 273.2C1996.8 277.167 2001.23 280.55 2006.72 283.35C2012.2 286.15 2018.44 288.658 2025.44 290.875C2032.44 293.092 2039.62 295.483 2046.97 298.05C2054.32 300.5 2061.49 303.417 2068.49 306.8C2075.49 310.067 2081.73 314.267 2087.22 319.4C2092.7 324.417 2097.08 330.6 2100.34 337.95C2103.73 345.3 2105.42 354.225 2105.42 364.725C2105.42 376.158 2103.43 386.892 2099.47 396.925C2095.62 406.842 2089.9 415.533 2082.32 423C2074.85 430.35 2065.69 436.183 2054.84 440.5C2043.99 444.7 2031.57 446.8 2017.57 446.8C2009.52 446.8 2001.58 445.983 1993.77 444.35C1985.95 442.833 1978.43 440.617 1971.19 437.7C1964.08 434.783 1957.37 431.283 1951.07 427.2C1944.77 423.117 1939.17 418.567 1934.27 413.55L1948.09 390.975C1949.26 389.342 1950.78 388 1952.64 386.95C1954.51 385.783 1956.49 385.2 1958.59 385.2C1961.51 385.2 1964.66 386.425 1968.04 388.875C1971.43 391.208 1975.45 393.833 1980.12 396.75C1984.78 399.667 1990.21 402.35 1996.39 404.8C2002.69 407.133 2010.22 408.3 2018.97 408.3C2032.38 408.3 2042.77 405.15 2050.12 398.85C2057.47 392.433 2061.14 383.275 2061.14 371.375C2061.14 364.725 2059.45 359.3 2056.07 355.1C2052.8 350.9 2048.43 347.4 2042.94 344.6C2037.46 341.683 2031.22 339.233 2024.22 337.25C2017.22 335.267 2010.1 333.108 2002.87 330.775C1995.63 328.442 1988.52 325.642 1981.52 322.375C1974.52 319.108 1968.28 314.85 1962.79 309.6C1957.31 304.35 1952.88 297.817 1949.49 290C1946.23 282.067 1944.59 272.325 1944.59 260.775C1944.59 251.558 1946.4 242.575 1950.02 233.825C1953.75 225.075 1959.12 217.317 1966.12 210.55C1973.12 203.783 1981.75 198.358 1992.02 194.275C2002.28 190.192 2014.07 188.15 2027.37 188.15C2042.3 188.15 2056.07 190.483 2068.67 195.15C2081.27 199.817 2092 206.35 2100.87 214.75L2089.14 236.975ZM2387.81 317.475C2387.81 336.025 2384.71 353.233 2378.53 369.1C2372.46 384.85 2363.83 398.5 2352.63 410.05C2341.43 421.6 2327.96 430.642 2312.21 437.175C2296.46 443.592 2278.96 446.8 2259.71 446.8C2240.57 446.8 2223.13 443.592 2207.38 437.175C2191.63 430.642 2178.1 421.6 2166.78 410.05C2155.58 398.5 2146.89 384.85 2140.71 369.1C2134.52 353.233 2131.43 336.025 2131.43 317.475C2131.43 298.925 2134.52 281.775 2140.71 266.025C2146.89 250.158 2155.58 236.45 2166.78 224.9C2178.1 213.35 2191.63 204.367 2207.38 197.95C2223.13 191.417 2240.57 188.15 2259.71 188.15C2272.54 188.15 2284.61 189.667 2295.93 192.7C2307.25 195.617 2317.63 199.817 2327.08 205.3C2336.53 210.667 2344.99 217.258 2352.46 225.075C2360.04 232.775 2366.46 241.408 2371.71 250.975C2376.96 260.542 2380.92 270.925 2383.61 282.125C2386.41 293.325 2387.81 305.108 2387.81 317.475ZM2339.68 317.475C2339.68 303.592 2337.81 291.167 2334.08 280.2C2330.35 269.117 2325.04 259.725 2318.16 252.025C2311.27 244.325 2302.87 238.433 2292.96 234.35C2283.16 230.267 2272.07 228.225 2259.71 228.225C2247.34 228.225 2236.2 230.267 2226.28 234.35C2216.48 238.433 2208.08 244.325 2201.08 252.025C2194.2 259.725 2188.89 269.117 2185.16 280.2C2181.42 291.167 2179.56 303.592 2179.56 317.475C2179.56 331.358 2181.42 343.842 2185.16 354.925C2188.89 365.892 2194.2 375.225 2201.08 382.925C2208.08 390.508 2216.48 396.342 2226.28 400.425C2236.2 404.508 2247.34 406.55 2259.71 406.55C2272.07 406.55 2283.16 404.508 2292.96 400.425C2302.87 396.342 2311.27 390.508 2318.16 382.925C2325.04 375.225 2330.35 365.892 2334.08 354.925C2337.81 343.842 2339.68 331.358 2339.68 317.475ZM2577.37 405.15V444H2429.15V190.95H2476.22V405.15H2577.37ZM2706 406.025C2715.1 406.025 2723.21 404.508 2730.32 401.475C2737.56 398.442 2743.62 394.183 2748.52 388.7C2753.42 383.217 2757.16 376.567 2759.72 368.75C2762.41 360.933 2763.75 352.183 2763.75 342.5V190.95H2810.82V342.5C2810.82 357.55 2808.37 371.492 2803.47 384.325C2798.69 397.042 2791.75 408.067 2782.65 417.4C2773.66 426.617 2762.7 433.85 2749.75 439.1C2736.8 444.233 2722.21 446.8 2706 446.8C2689.66 446.8 2675.02 444.233 2662.07 439.1C2649.12 433.85 2638.1 426.617 2629 417.4C2620.01 408.067 2613.07 397.042 2608.17 384.325C2603.39 371.492 2601 357.55 2601 342.5V190.95H2648.07V342.325C2648.07 352.008 2649.36 360.758 2651.92 368.575C2654.61 376.392 2658.4 383.1 2663.3 388.7C2668.31 394.183 2674.38 398.442 2681.5 401.475C2688.73 404.508 2696.9 406.025 2706 406.025ZM3040.66 229.625H2964.36V444H2917.29V229.625H2840.99V190.95H3040.66V229.625ZM3121.03 444H3073.78V190.95H3121.03V444ZM3419.01 317.475C3419.01 336.025 3415.92 353.233 3409.73 369.1C3403.67 384.85 3395.03 398.5 3383.83 410.05C3372.63 421.6 3359.16 430.642 3343.41 437.175C3327.66 443.592 3310.16 446.8 3290.91 446.8C3271.77 446.8 3254.33 443.592 3238.58 437.175C3222.83 430.642 3209.3 421.6 3197.98 410.05C3186.78 398.5 3178.09 384.85 3171.91 369.1C3165.72 353.233 3162.63 336.025 3162.63 317.475C3162.63 298.925 3165.72 281.775 3171.91 266.025C3178.09 250.158 3186.78 236.45 3197.98 224.9C3209.3 213.35 3222.83 204.367 3238.58 197.95C3254.33 191.417 3271.77 188.15 3290.91 188.15C3303.74 188.15 3315.82 189.667 3327.13 192.7C3338.45 195.617 3348.83 199.817 3358.28 205.3C3367.73 210.667 3376.19 217.258 3383.66 225.075C3391.24 232.775 3397.66 241.408 3402.91 250.975C3408.16 260.542 3412.12 270.925 3414.81 282.125C3417.61 293.325 3419.01 305.108 3419.01 317.475ZM3370.88 317.475C3370.88 303.592 3369.02 291.167 3365.28 280.2C3361.55 269.117 3356.24 259.725 3349.36 252.025C3342.47 244.325 3334.07 238.433 3324.16 234.35C3314.36 230.267 3303.27 228.225 3290.91 228.225C3278.54 228.225 3267.4 230.267 3257.48 234.35C3247.68 238.433 3239.28 244.325 3232.28 252.025C3225.4 259.725 3220.09 269.117 3216.36 280.2C3212.62 291.167 3210.76 303.592 3210.76 317.475C3210.76 331.358 3212.62 343.842 3216.36 354.925C3220.09 365.892 3225.4 375.225 3232.28 382.925C3239.28 390.508 3247.68 396.342 3257.48 400.425C3267.4 404.508 3278.54 406.55 3290.91 406.55C3303.27 406.55 3314.36 404.508 3324.16 400.425C3334.07 396.342 3342.47 390.508 3349.36 382.925C3356.24 375.225 3361.55 365.892 3365.28 354.925C3369.02 343.842 3370.88 331.358 3370.88 317.475ZM3673.67 190.95V444H3649.52C3645.79 444 3642.64 443.417 3640.07 442.25C3637.62 440.967 3635.23 438.867 3632.9 435.95L3500.77 267.25C3501.47 274.95 3501.82 282.067 3501.82 288.6V444H3460.35V190.95H3485.02C3487.01 190.95 3488.7 191.067 3490.1 191.3C3491.62 191.417 3492.9 191.767 3493.95 192.35C3495.12 192.817 3496.22 193.575 3497.27 194.625C3498.32 195.558 3499.49 196.842 3500.77 198.475L3633.42 367.875C3633.07 363.792 3632.78 359.767 3632.55 355.8C3632.32 351.833 3632.2 348.158 3632.2 344.775V190.95H3673.67ZM3864.78 236.975C3863.38 239.425 3861.86 241.233 3860.23 242.4C3858.71 243.45 3856.78 243.975 3854.45 243.975C3852 243.975 3849.32 243.1 3846.4 241.35C3843.6 239.483 3840.22 237.442 3836.25 235.225C3832.28 233.008 3827.62 231.025 3822.25 229.275C3817 227.408 3810.76 226.475 3803.53 226.475C3796.99 226.475 3791.28 227.292 3786.38 228.925C3781.48 230.442 3777.33 232.6 3773.95 235.4C3770.68 238.2 3768.23 241.583 3766.6 245.55C3764.97 249.4 3764.15 253.658 3764.15 258.325C3764.15 264.275 3765.78 269.233 3769.05 273.2C3772.43 277.167 3776.87 280.55 3782.35 283.35C3787.83 286.15 3794.08 288.658 3801.08 290.875C3808.08 293.092 3815.25 295.483 3822.6 298.05C3829.95 300.5 3837.13 303.417 3844.13 306.8C3851.13 310.067 3857.37 314.267 3862.85 319.4C3868.33 324.417 3872.71 330.6 3875.98 337.95C3879.36 345.3 3881.05 354.225 3881.05 364.725C3881.05 376.158 3879.07 386.892 3875.1 396.925C3871.25 406.842 3865.53 415.533 3857.95 423C3850.48 430.35 3841.33 436.183 3830.48 440.5C3819.63 444.7 3807.2 446.8 3793.2 446.8C3785.15 446.8 3777.22 445.983 3769.4 444.35C3761.58 442.833 3754.06 440.617 3746.83 437.7C3739.71 434.783 3733 431.283 3726.7 427.2C3720.4 423.117 3714.8 418.567 3709.9 413.55L3723.73 390.975C3724.89 389.342 3726.41 388 3728.28 386.95C3730.14 385.783 3732.13 385.2 3734.23 385.2C3737.14 385.2 3740.29 386.425 3743.68 388.875C3747.06 391.208 3751.08 393.833 3755.75 396.75C3760.42 399.667 3765.84 402.35 3772.03 404.8C3778.33 407.133 3785.85 408.3 3794.6 408.3C3808.02 408.3 3818.4 405.15 3825.75 398.85C3833.1 392.433 3836.78 383.275 3836.78 371.375C3836.78 364.725 3835.08 359.3 3831.7 355.1C3828.43 350.9 3824.06 347.4 3818.58 344.6C3813.09 341.683 3806.85 339.233 3799.85 337.25C3792.85 335.267 3785.73 333.108 3778.5 330.775C3771.27 328.442 3764.15 325.642 3757.15 322.375C3750.15 319.108 3743.91 314.85 3738.43 309.6C3732.94 304.35 3728.51 297.817 3725.13 290C3721.86 282.067 3720.23 272.325 3720.23 260.775C3720.23 251.558 3722.03 242.575 3725.65 233.825C3729.38 225.075 3734.75 217.317 3741.75 210.55C3748.75 203.783 3757.38 198.358 3767.65 194.275C3777.92 190.192 3789.7 188.15 3803 188.15C3817.93 188.15 3831.7 190.483 3844.3 195.15C3856.9 199.817 3867.63 206.35 3876.5 214.75L3864.78 236.975Z" fill="url(#grad1)" />
</g>
<path id="subtext" d="M907.312 582.062H899.438V650.5H907.312V582.062ZM930.188 582.062H924.188V650.5H931.5V595.562L972.938 650.5H978.938V582.062H971.438V637.188L930.188 582.062ZM1001.81 582.062H995.812V650.5H1003.12V595.562L1044.56 650.5H1050.56V582.062H1043.06V637.188L1001.81 582.062ZM1065 616.375C1065 637.75 1077 651.25 1096.12 651.25C1115.06 651.25 1127.25 637.75 1127.25 616.188C1127.25 594.812 1115.44 581.312 1096.12 581.312C1076.81 581.312 1065 594.812 1065 616.375ZM1119 616.188C1119 634.188 1110.56 644.5 1096.12 644.5C1081.5 644.5 1073.06 634.188 1073.06 616.188C1073.06 598.188 1081.5 588.062 1096.12 588.062C1110.56 588.062 1119 598.188 1119 616.188ZM1141.88 582.062H1133.44L1163.25 650.5H1170.19L1200 582.062H1191.94L1166.81 640.562L1141.88 582.062ZM1238.81 582.062H1231.88L1201.88 650.5H1210.12L1217.62 632.875H1253.44L1260.94 650.5H1269L1238.81 582.062ZM1250.62 626.312H1220.44L1235.44 591.25L1250.62 626.312ZM1303.69 588.812H1327.5V582.062H1271.81V588.812H1295.62V650.5H1303.69V588.812ZM1344.94 582.062H1337.06V650.5H1344.94V582.062ZM1362 582.062H1353.56L1383.38 650.5H1390.31L1420.12 582.062H1412.06L1386.94 640.562L1362 582.062ZM1471.88 643.938H1436.62V619.188H1470V612.438H1436.62V588.625H1471.88V582.062H1428.75V650.5H1471.88V643.938ZM1522.5 642.625C1528.69 648.438 1537.31 651.25 1548 651.25C1563.38 651.25 1573.12 643.562 1573.12 631.938C1573.12 624.062 1568.25 619.375 1561.31 617.125C1557.94 616 1553.44 614.5 1547.62 613.188C1536.75 610.562 1531.5 607.75 1531.5 600.812C1531.5 592.938 1537.88 588.062 1548.56 588.062C1556.25 588.062 1562.62 590.688 1569 596.125L1572.19 589.938C1566.56 584.312 1558.12 581.312 1548.56 581.312C1533.56 581.312 1523.62 589.375 1523.62 601.188C1523.62 609.25 1528.31 614.125 1535.06 616.938C1538.44 618.25 1542.75 619.375 1548 620.688C1559.25 623.312 1565.06 625 1565.25 632.312C1565.44 640 1559.06 644.5 1548 644.5C1538.81 644.5 1532.25 642.25 1525.31 636.625L1522.5 642.625ZM1583.81 616.375C1583.81 637.75 1595.81 651.25 1614.94 651.25C1633.88 651.25 1646.06 637.75 1646.06 616.188C1646.06 594.812 1634.25 581.312 1614.94 581.312C1595.62 581.312 1583.81 594.812 1583.81 616.375ZM1637.81 616.188C1637.81 634.188 1629.38 644.5 1614.94 644.5C1600.31 644.5 1591.88 634.188 1591.88 616.188C1591.88 598.188 1600.31 588.062 1614.94 588.062C1629.38 588.062 1637.81 598.188 1637.81 616.188ZM1702.69 643.75H1668.38V582.062H1660.5V650.5H1702.69V643.75ZM1719 623.688C1719 641.875 1728.38 651.25 1746.19 651.25C1764 651.25 1773.38 641.688 1773.38 623.688V582.062H1765.5V624.438C1765.5 637.75 1758.94 644.5 1746.19 644.5C1733.44 644.5 1726.88 637.75 1726.88 624.438V582.062H1719V623.688ZM1814.25 588.812H1838.06V582.062H1782.38V588.812H1806.19V650.5H1814.25V588.812ZM1855.5 582.062H1847.62V650.5H1855.5V582.062ZM1869.94 616.375C1869.94 637.75 1881.94 651.25 1901.06 651.25C1920 651.25 1932.19 637.75 1932.19 616.188C1932.19 594.812 1920.38 581.312 1901.06 581.312C1881.75 581.312 1869.94 594.812 1869.94 616.375ZM1923.94 616.188C1923.94 634.188 1915.5 644.5 1901.06 644.5C1886.44 644.5 1878 634.188 1878 616.188C1878 598.188 1886.44 588.062 1901.06 588.062C1915.5 588.062 1923.94 598.188 1923.94 616.188ZM1952.62 582.062H1946.62V650.5H1953.94V595.562L1995.38 650.5H2001.38V582.062H1993.88V637.188L1952.62 582.062ZM2014.5 642.625C2020.69 648.438 2029.31 651.25 2040 651.25C2055.38 651.25 2065.12 643.562 2065.12 631.938C2065.12 624.062 2060.25 619.375 2053.31 617.125C2049.94 616 2045.44 614.5 2039.62 613.188C2028.75 610.562 2023.5 607.75 2023.5 600.812C2023.5 592.938 2029.88 588.062 2040.56 588.062C2048.25 588.062 2054.62 590.688 2061 596.125L2064.19 589.938C2058.56 584.312 2050.12 581.312 2040.56 581.312C2025.56 581.312 2015.62 589.375 2015.62 601.188C2015.62 609.25 2020.31 614.125 2027.06 616.938C2030.44 618.25 2034.75 619.375 2040 620.688C2051.25 623.312 2057.06 625 2057.25 632.312C2057.44 640 2051.06 644.5 2040 644.5C2030.81 644.5 2024.25 642.25 2017.31 636.625L2014.5 642.625ZM2123.62 619.188H2156.06V612.438H2123.62V588.812H2157.94V582.062H2115.75V650.5H2123.62V619.188ZM2172.38 616.375C2172.38 637.75 2184.38 651.25 2203.5 651.25C2222.44 651.25 2234.62 637.75 2234.62 616.188C2234.62 594.812 2222.81 581.312 2203.5 581.312C2184.19 581.312 2172.38 594.812 2172.38 616.375ZM2226.38 616.188C2226.38 634.188 2217.94 644.5 2203.5 644.5C2188.88 644.5 2180.44 634.188 2180.44 616.188C2180.44 598.188 2188.88 588.062 2203.5 588.062C2217.94 588.062 2226.38 598.188 2226.38 616.188ZM2294.06 627.438C2292.19 622.188 2289.38 619.562 2285.44 619C2294.25 616.375 2299.12 610 2299.12 601.188C2299.12 588.812 2290.88 582.062 2276.25 582.062H2249.06V650.5H2256.94V620.688H2274C2280.56 620.688 2283.94 622.188 2286 627.812L2294.44 650.5H2302.69L2294.06 627.438ZM2256.94 588.625H2275.5C2286.38 588.625 2291.25 592.75 2291.25 601.188C2291.25 609.812 2286 614.125 2275.5 614.125H2256.94V588.625ZM2408.25 631.938C2408.25 623.5 2403.56 617.5 2395.88 615.438C2402.62 612.812 2406.56 607.375 2406.56 600.062C2406.56 588.625 2398.5 582.062 2384.44 582.062H2357.06V650.5H2385.56C2400 650.5 2408.25 643.75 2408.25 631.938ZM2383.31 588.625C2393.62 588.625 2398.88 592.562 2398.88 600.438C2398.88 608.312 2393.62 612.438 2383.31 612.438H2364.94V588.625H2383.31ZM2400.38 631.75C2400.38 640 2395.5 643.938 2384.81 643.938H2364.94V619.188H2384.81C2395.31 619.188 2400.38 623.312 2400.38 631.75ZM2468.25 643.938H2433V619.188H2466.38V612.438H2433V588.625H2468.25V582.062H2425.12V650.5H2468.25V643.938ZM2509.69 588.812H2533.5V582.062H2477.81V588.812H2501.62V650.5H2509.69V588.812ZM2567.62 588.812H2591.44V582.062H2535.75V588.812H2559.56V650.5H2567.62V588.812ZM2644.12 643.938H2608.88V619.188H2642.25V612.438H2608.88V588.625H2644.12V582.062H2601V650.5H2644.12V643.938ZM2706 627.438C2704.12 622.188 2701.31 619.562 2697.38 619C2706.19 616.375 2711.06 610 2711.06 601.188C2711.06 588.812 2702.81 582.062 2688.19 582.062H2661V650.5H2668.88V620.688H2685.94C2692.5 620.688 2695.88 622.188 2697.94 627.812L2706.38 650.5H2714.62L2706 627.438ZM2668.88 588.625H2687.44C2698.31 588.625 2703.19 592.75 2703.19 601.188C2703.19 609.812 2697.94 614.125 2687.44 614.125H2668.88V588.625ZM2820.19 631.938C2820.19 623.5 2815.5 617.5 2807.81 615.438C2814.56 612.812 2818.5 607.375 2818.5 600.062C2818.5 588.625 2810.44 582.062 2796.38 582.062H2769V650.5H2797.5C2811.94 650.5 2820.19 643.75 2820.19 631.938ZM2795.25 588.625C2805.56 588.625 2810.81 592.562 2810.81 600.438C2810.81 608.312 2805.56 612.438 2795.25 612.438H2776.88V588.625H2795.25ZM2812.31 631.75C2812.31 640 2807.44 643.938 2796.75 643.938H2776.88V619.188H2796.75C2807.25 619.188 2812.31 623.312 2812.31 631.75ZM2836.5 623.688C2836.5 641.875 2845.88 651.25 2863.69 651.25C2881.5 651.25 2890.88 641.688 2890.88 623.688V582.062H2883V624.438C2883 637.75 2876.44 644.5 2863.69 644.5C2850.94 644.5 2844.38 637.75 2844.38 624.438V582.062H2836.5V623.688ZM2903.44 642.625C2909.62 648.438 2918.25 651.25 2928.94 651.25C2944.31 651.25 2954.06 643.562 2954.06 631.938C2954.06 624.062 2949.19 619.375 2942.25 617.125C2938.88 616 2934.38 614.5 2928.56 613.188C2917.69 610.562 2912.44 607.75 2912.44 600.812C2912.44 592.938 2918.81 588.062 2929.5 588.062C2937.19 588.062 2943.56 590.688 2949.94 596.125L2953.12 589.938C2947.5 584.312 2939.06 581.312 2929.5 581.312C2914.5 581.312 2904.56 589.375 2904.56 601.188C2904.56 609.25 2909.25 614.125 2916 616.938C2919.38 618.25 2923.69 619.375 2928.94 620.688C2940.19 623.312 2946 625 2946.19 632.312C2946.38 640 2940 644.5 2928.94 644.5C2919.75 644.5 2913.19 642.25 2906.25 636.625L2903.44 642.625ZM2975.06 582.062H2967.19V650.5H2975.06V582.062ZM2997.94 582.062H2991.94V650.5H2999.25V595.562L3040.69 650.5H3046.69V582.062H3039.19V637.188L2997.94 582.062ZM3106.69 643.938H3071.44V619.188H3104.81V612.438H3071.44V588.625H3106.69V582.062H3063.56V650.5H3106.69V643.938ZM3119.81 642.625C3126 648.438 3134.62 651.25 3145.31 651.25C3160.69 651.25 3170.44 643.562 3170.44 631.938C3170.44 624.062 3165.56 619.375 3158.62 617.125C3155.25 616 3150.75 614.5 3144.94 613.188C3134.06 610.562 3128.81 607.75 3128.81 600.812C3128.81 592.938 3135.19 588.062 3145.88 588.062C3153.56 588.062 3159.94 590.688 3166.31 596.125L3169.5 589.938C3163.88 584.312 3155.44 581.312 3145.88 581.312C3130.88 581.312 3120.94 589.375 3120.94 601.188C3120.94 609.25 3125.62 614.125 3132.38 616.938C3135.75 618.25 3140.06 619.375 3145.31 620.688C3156.56 623.312 3162.38 625 3162.56 632.312C3162.75 640 3156.38 644.5 3145.31 644.5C3136.12 644.5 3129.56 642.25 3122.62 636.625L3119.81 642.625ZM3179.81 642.625C3186 648.438 3194.62 651.25 3205.31 651.25C3220.69 651.25 3230.44 643.562 3230.44 631.938C3230.44 624.062 3225.56 619.375 3218.62 617.125C3215.25 616 3210.75 614.5 3204.94 613.188C3194.06 610.562 3188.81 607.75 3188.81 600.812C3188.81 592.938 3195.19 588.062 3205.88 588.062C3213.56 588.062 3219.94 590.688 3226.31 596.125L3229.5 589.938C3223.88 584.312 3215.44 581.312 3205.88 581.312C3190.88 581.312 3180.94 589.375 3180.94 601.188C3180.94 609.25 3185.62 614.125 3192.38 616.938C3195.75 618.25 3200.06 619.375 3205.31 620.688C3216.56 623.312 3222.38 625 3222.56 632.312C3222.75 640 3216.38 644.5 3205.31 644.5C3196.12 644.5 3189.56 642.25 3182.62 636.625L3179.81 642.625ZM3278.62 616.375C3278.62 637.75 3290.62 651.25 3309.75 651.25C3328.69 651.25 3340.88 637.75 3340.88 616.188C3340.88 594.812 3329.06 581.312 3309.75 581.312C3290.44 581.312 3278.62 594.812 3278.62 616.375ZM3332.62 616.188C3332.62 634.188 3324.19 644.5 3309.75 644.5C3295.12 644.5 3286.69 634.188 3286.69 616.188C3286.69 598.188 3295.12 588.062 3309.75 588.062C3324.19 588.062 3332.62 598.188 3332.62 616.188ZM3363.19 650.5V620.5H3382.5C3396.56 620.5 3405 613.188 3405 601.188C3405 589.375 3396.75 582.062 3382.5 582.062H3355.31V650.5H3363.19ZM3363.19 588.625H3381.94C3392.06 588.625 3397.12 593.125 3397.12 601.188C3397.12 609.438 3392.06 613.938 3381.94 613.938H3363.19V588.625ZM3465 643.938H3429.75V619.188H3463.12V612.438H3429.75V588.625H3465V582.062H3421.88V650.5H3465V643.938ZM3526.88 627.438C3525 622.188 3522.19 619.562 3518.25 619C3527.06 616.375 3531.94 610 3531.94 601.188C3531.94 588.812 3523.69 582.062 3509.06 582.062H3481.88V650.5H3489.75V620.688H3506.81C3513.38 620.688 3516.75 622.188 3518.81 627.812L3527.25 650.5H3535.5L3526.88 627.438ZM3489.75 588.625H3508.31C3519.19 588.625 3524.06 592.75 3524.06 601.188C3524.06 609.812 3518.81 614.125 3508.31 614.125H3489.75V588.625ZM3582.56 582.062H3575.62L3545.62 650.5H3553.88L3561.38 632.875H3597.19L3604.69 650.5H3612.75L3582.56 582.062ZM3594.38 626.312H3564.19L3579.19 591.25L3594.38 626.312ZM3647.44 588.812H3671.25V582.062H3615.56V588.812H3639.38V650.5H3647.44V588.812ZM3688.69 582.062H3680.81V650.5H3688.69V582.062ZM3703.12 616.375C3703.12 637.75 3715.12 651.25 3734.25 651.25C3753.19 651.25 3765.38 637.75 3765.38 616.188C3765.38 594.812 3753.56 581.312 3734.25 581.312C3714.94 581.312 3703.12 594.812 3703.12 616.375ZM3757.12 616.188C3757.12 634.188 3748.69 644.5 3734.25 644.5C3719.62 644.5 3711.19 634.188 3711.19 616.188C3711.19 598.188 3719.62 588.062 3734.25 588.062C3748.69 588.062 3757.12 598.188 3757.12 616.188ZM3785.81 582.062H3779.81V650.5H3787.12V595.562L3828.56 650.5H3834.56V582.062H3827.06V637.188L3785.81 582.062ZM3847.69 642.625C3853.88 648.438 3862.5 651.25 3873.19 651.25C3888.56 651.25 3898.31 643.562 3898.31 631.938C3898.31 624.062 3893.44 619.375 3886.5 617.125C3883.12 616 3878.62 614.5 3872.81 613.188C3861.94 610.562 3856.69 607.75 3856.69 600.812C3856.69 592.938 3863.06 588.062 3873.75 588.062C3881.44 588.062 3887.81 590.688 3894.19 596.125L3897.38 589.938C3891.75 584.312 3883.31 581.312 3873.75 581.312C3858.75 581.312 3848.81 589.375 3848.81 601.188C3848.81 609.25 3853.5 614.125 3860.25 616.938C3863.62 618.25 3867.94 619.375 3873.19 620.688C3884.44 623.312 3890.25 625 3890.44 632.312C3890.62 640 3884.25 644.5 3873.19 644.5C3864 644.5 3857.44 642.25 3850.5 636.625L3847.69 642.625Z" fill="url(#grad1)"/>
</g>
</g>
<defs>
<filter id="filter0_d" x="863.125" y="188.15" width="3021.93" height="266.65" filterUnits="userSpaceOnUse" color-interpolation-filters="sRGB">
<feFlood flood-opacity="0" result="BackgroundImageFix"/>
<feColorMatrix in="SourceAlpha" type="matrix" values="0 0 0 0 0 0 0 0 0 0 0 0 0 0 0 0 0 0 127 0"/>
<feOffset dy="4"/>
<feGaussianBlur stdDeviation="2"/>
<feColorMatrix type="matrix" values="0 0 0 0 0 0 0 0 0 0 0 0 0 0 0 0 0 0 0.25 0"/>
<feBlend mode="normal" in2="BackgroundImageFix" result="effect1_dropShadow"/>
<feBlend mode="normal" in="SourceGraphic" in2="effect1_dropShadow" result="shape"/>
</filter>
<clipPath id="clip0">
<rect width="3425" height="739" fill="white" transform="translate(827 55)"/>
</clipPath>
</defs>
  <defs>
    <linearGradient id="grad1" x1="0%" y1="0%" x2="100%" y2="0%">
      <stop offset="0%" style="stop-color:rgb(41,171,226);stop-opacity:1" />
      <stop offset="100%" style="stop-color:rgb(31,61,134);stop-opacity:1" />
    </linearGradient>
  </defs>
</svg>
