<svg width="4256" height="808" viewBox="0 0 4256 808" fill="none" xmlns="http://www.w3.org/2000/svg">
<g id="Group 1">
<g id="icon">
<g id="Group 2" filter="url(#filter0_d)">
<circle id="Ellipse 1" cx="404" cy="400" r="400" fill="white"/>
<rect id="Rectangle 1" x="180" y="176" width="448" height="448" fill="black"/>
<circle id="Ellipse 3" cx="404" cy="400" r="256" fill="white"/>
<circle id="Ellipse 2" cx="404" cy="400" r="240" fill="black"/>
<circle id="Ellipse 4" cx="404" cy="400" r="176" fill="white"/>
</g>
</g>
<g id="textid" clip-path="url(#clip0)">
<g id="text" filter="url(#filter1_d)">
<path d="M1127.5 317.475C1127.5 336.025 1124.41 353.233 1118.23 369.1C1112.16 384.85 1103.53 398.5 1092.33 410.05C1081.13 421.6 1067.65 430.642 1051.9 437.175C1036.15 443.592 1018.65 446.8 999.4 446.8C980.267 446.8 962.825 443.592 947.075 437.175C931.325 430.642 917.792 421.6 906.475 410.05C895.275 398.5 886.583 384.85 880.4 369.1C874.217 353.233 871.125 336.025 871.125 317.475C871.125 298.925 874.217 281.775 880.4 266.025C886.583 250.158 895.275 236.45 906.475 224.9C917.792 213.35 931.325 204.367 947.075 197.95C962.825 191.417 980.267 188.15 999.4 188.15C1012.23 188.15 1024.31 189.667 1035.63 192.7C1046.94 195.617 1057.33 199.817 1066.78 205.3C1076.23 210.667 1084.68 217.258 1092.15 225.075C1099.73 232.775 1106.15 241.408 1111.4 250.975C1116.65 260.542 1120.62 270.925 1123.3 282.125C1126.1 293.325 1127.5 305.108 1127.5 317.475ZM1079.38 317.475C1079.38 303.592 1077.51 291.167 1073.78 280.2C1070.04 269.117 1064.73 259.725 1057.85 252.025C1050.97 244.325 1042.57 238.433 1032.65 234.35C1022.85 230.267 1011.77 228.225 999.4 228.225C987.033 228.225 975.892 230.267 965.975 234.35C956.175 238.433 947.775 244.325 940.775 252.025C933.892 259.725 928.583 269.117 924.85 280.2C921.117 291.167 919.25 303.592 919.25 317.475C919.25 331.358 921.117 343.842 924.85 354.925C928.583 365.892 933.892 375.225 940.775 382.925C947.775 390.508 956.175 396.342 965.975 400.425C975.892 404.508 987.033 406.55 999.4 406.55C1011.77 406.55 1022.85 404.508 1032.65 400.425C1042.57 396.342 1050.97 390.508 1057.85 382.925C1064.73 375.225 1070.04 365.892 1073.78 354.925C1077.51 343.842 1079.38 331.358 1079.38 317.475ZM1443.24 190.95V444H1401.77V280.55C1401.77 274.017 1402.12 266.958 1402.82 259.375L1326.34 403.05C1322.72 409.933 1317.18 413.375 1309.72 413.375H1303.07C1295.6 413.375 1290.06 409.933 1286.44 403.05L1209.09 258.85C1209.44 262.7 1209.73 266.492 1209.97 270.225C1210.2 273.958 1210.32 277.4 1210.32 280.55V444H1168.84V190.95H1204.37C1206.47 190.95 1208.27 191.008 1209.79 191.125C1211.31 191.242 1212.65 191.533 1213.82 192C1215.1 192.467 1216.21 193.225 1217.14 194.275C1218.19 195.325 1219.18 196.725 1220.12 198.475L1295.89 339C1297.87 342.733 1299.68 346.583 1301.32 350.55C1303.07 354.517 1304.76 358.6 1306.39 362.8C1308.02 358.483 1309.72 354.342 1311.47 350.375C1313.22 346.292 1315.08 342.383 1317.07 338.65L1391.79 198.475C1392.72 196.725 1393.72 195.325 1394.77 194.275C1395.82 193.225 1396.92 192.467 1398.09 192C1399.37 191.533 1400.77 191.242 1402.29 191.125C1403.81 191.008 1405.62 190.95 1407.72 190.95H1443.24ZM1713.03 190.95V444H1688.88C1685.14 444 1681.99 443.417 1679.43 442.25C1676.98 440.967 1674.58 438.867 1672.25 435.95L1540.13 267.25C1540.83 274.95 1541.18 282.067 1541.18 288.6V444H1499.7V190.95H1524.38C1526.36 190.95 1528.05 191.067 1529.45 191.3C1530.97 191.417 1532.25 191.767 1533.3 192.35C1534.47 192.817 1535.58 193.575 1536.63 194.625C1537.68 195.558 1538.84 196.842 1540.13 198.475L1672.78 367.875C1672.43 363.792 1672.13 359.767 1671.9 355.8C1671.67 351.833 1671.55 348.158 1671.55 344.775V190.95H1713.03ZM1816.63 444H1769.38V190.95H1816.63V444ZM2093.14 236.975C2091.74 239.425 2090.23 241.233 2088.59 242.4C2087.08 243.45 2085.15 243.975 2082.82 243.975C2080.37 243.975 2077.68 243.1 2074.77 241.35C2071.97 239.483 2068.58 237.442 2064.62 235.225C2060.65 233.008 2055.98 231.025 2050.62 229.275C2045.37 227.408 2039.13 226.475 2031.89 226.475C2025.36 226.475 2019.64 227.292 2014.74 228.925C2009.84 230.442 2005.7 232.6 2002.32 235.4C1999.05 238.2 1996.6 241.583 1994.97 245.55C1993.33 249.4 1992.52 253.658 1992.52 258.325C1992.52 264.275 1994.15 269.233 1997.42 273.2C2000.8 277.167 2005.23 280.55 2010.72 283.35C2016.2 286.15 2022.44 288.658 2029.44 290.875C2036.44 293.092 2043.62 295.483 2050.97 298.05C2058.32 300.5 2065.49 303.417 2072.49 306.8C2079.49 310.067 2085.73 314.267 2091.22 319.4C2096.7 324.417 2101.08 330.6 2104.34 337.95C2107.73 345.3 2109.42 354.225 2109.42 364.725C2109.42 376.158 2107.43 386.892 2103.47 396.925C2099.62 406.842 2093.9 415.533 2086.32 423C2078.85 430.35 2069.69 436.183 2058.84 440.5C2047.99 444.7 2035.57 446.8 2021.57 446.8C2013.52 446.8 2005.58 445.983 1997.77 444.35C1989.95 442.833 1982.43 440.617 1975.19 437.7C1968.08 434.783 1961.37 431.283 1955.07 427.2C1948.77 423.117 1943.17 418.567 1938.27 413.55L1952.09 390.975C1953.26 389.342 1954.78 388 1956.64 386.95C1958.51 385.783 1960.49 385.2 1962.59 385.2C1965.51 385.2 1968.66 386.425 1972.04 388.875C1975.43 391.208 1979.45 393.833 1984.12 396.75C1988.78 399.667 1994.21 402.35 2000.39 404.8C2006.69 407.133 2014.22 408.3 2022.97 408.3C2036.38 408.3 2046.77 405.15 2054.12 398.85C2061.47 392.433 2065.14 383.275 2065.14 371.375C2065.14 364.725 2063.45 359.3 2060.07 355.1C2056.8 350.9 2052.43 347.4 2046.94 344.6C2041.46 341.683 2035.22 339.233 2028.22 337.25C2021.22 335.267 2014.1 333.108 2006.87 330.775C1999.63 328.442 1992.52 325.642 1985.52 322.375C1978.52 319.108 1972.28 314.85 1966.79 309.6C1961.31 304.35 1956.88 297.817 1953.49 290C1950.23 282.067 1948.59 272.325 1948.59 260.775C1948.59 251.558 1950.4 242.575 1954.02 233.825C1957.75 225.075 1963.12 217.317 1970.12 210.55C1977.12 203.783 1985.75 198.358 1996.02 194.275C2006.28 190.192 2018.07 188.15 2031.37 188.15C2046.3 188.15 2060.07 190.483 2072.67 195.15C2085.27 199.817 2096 206.35 2104.87 214.75L2093.14 236.975ZM2391.81 317.475C2391.81 336.025 2388.71 353.233 2382.53 369.1C2376.46 384.85 2367.83 398.5 2356.63 410.05C2345.43 421.6 2331.96 430.642 2316.21 437.175C2300.46 443.592 2282.96 446.8 2263.71 446.8C2244.57 446.8 2227.13 443.592 2211.38 437.175C2195.63 430.642 2182.1 421.6 2170.78 410.05C2159.58 398.5 2150.89 384.85 2144.71 369.1C2138.52 353.233 2135.43 336.025 2135.43 317.475C2135.43 298.925 2138.52 281.775 2144.71 266.025C2150.89 250.158 2159.58 236.45 2170.78 224.9C2182.1 213.35 2195.63 204.367 2211.38 197.95C2227.13 191.417 2244.57 188.15 2263.71 188.15C2276.54 188.15 2288.61 189.667 2299.93 192.7C2311.25 195.617 2321.63 199.817 2331.08 205.3C2340.53 210.667 2348.99 217.258 2356.46 225.075C2364.04 232.775 2370.46 241.408 2375.71 250.975C2380.96 260.542 2384.92 270.925 2387.61 282.125C2390.41 293.325 2391.81 305.108 2391.81 317.475ZM2343.68 317.475C2343.68 303.592 2341.81 291.167 2338.08 280.2C2334.35 269.117 2329.04 259.725 2322.16 252.025C2315.27 244.325 2306.87 238.433 2296.96 234.35C2287.16 230.267 2276.07 228.225 2263.71 228.225C2251.34 228.225 2240.2 230.267 2230.28 234.35C2220.48 238.433 2212.08 244.325 2205.08 252.025C2198.2 259.725 2192.89 269.117 2189.16 280.2C2185.42 291.167 2183.56 303.592 2183.56 317.475C2183.56 331.358 2185.42 343.842 2189.16 354.925C2192.89 365.892 2198.2 375.225 2205.08 382.925C2212.08 390.508 2220.48 396.342 2230.28 400.425C2240.2 404.508 2251.34 406.55 2263.71 406.55C2276.07 406.55 2287.16 404.508 2296.96 400.425C2306.87 396.342 2315.27 390.508 2322.16 382.925C2329.04 375.225 2334.35 365.892 2338.08 354.925C2341.81 343.842 2343.68 331.358 2343.68 317.475ZM2581.37 405.15V444H2433.15V190.95H2480.22V405.15H2581.37ZM2710 406.025C2719.1 406.025 2727.21 404.508 2734.32 401.475C2741.56 398.442 2747.62 394.183 2752.52 388.7C2757.42 383.217 2761.16 376.567 2763.72 368.75C2766.41 360.933 2767.75 352.183 2767.75 342.5V190.95H2814.82V342.5C2814.82 357.55 2812.37 371.492 2807.47 384.325C2802.69 397.042 2795.75 408.067 2786.65 417.4C2777.66 426.617 2766.7 433.85 2753.75 439.1C2740.8 444.233 2726.21 446.8 2710 446.8C2693.66 446.8 2679.02 444.233 2666.07 439.1C2653.12 433.85 2642.1 426.617 2633 417.4C2624.01 408.067 2617.07 397.042 2612.17 384.325C2607.39 371.492 2605 357.55 2605 342.5V190.95H2652.07V342.325C2652.07 352.008 2653.36 360.758 2655.92 368.575C2658.61 376.392 2662.4 383.1 2667.3 388.7C2672.31 394.183 2678.38 398.442 2685.5 401.475C2692.73 404.508 2700.9 406.025 2710 406.025ZM3044.66 229.625H2968.36V444H2921.29V229.625H2844.99V190.95H3044.66V229.625ZM3125.03 444H3077.78V190.95H3125.03V444ZM3423.01 317.475C3423.01 336.025 3419.92 353.233 3413.73 369.1C3407.67 384.85 3399.03 398.5 3387.83 410.05C3376.63 421.6 3363.16 430.642 3347.41 437.175C3331.66 443.592 3314.16 446.8 3294.91 446.8C3275.77 446.8 3258.33 443.592 3242.58 437.175C3226.83 430.642 3213.3 421.6 3201.98 410.05C3190.78 398.5 3182.09 384.85 3175.91 369.1C3169.72 353.233 3166.63 336.025 3166.63 317.475C3166.63 298.925 3169.72 281.775 3175.91 266.025C3182.09 250.158 3190.78 236.45 3201.98 224.9C3213.3 213.35 3226.83 204.367 3242.58 197.95C3258.33 191.417 3275.77 188.15 3294.91 188.15C3307.74 188.15 3319.82 189.667 3331.13 192.7C3342.45 195.617 3352.83 199.817 3362.28 205.3C3371.73 210.667 3380.19 217.258 3387.66 225.075C3395.24 232.775 3401.66 241.408 3406.91 250.975C3412.16 260.542 3416.12 270.925 3418.81 282.125C3421.61 293.325 3423.01 305.108 3423.01 317.475ZM3374.88 317.475C3374.88 303.592 3373.02 291.167 3369.28 280.2C3365.55 269.117 3360.24 259.725 3353.36 252.025C3346.47 244.325 3338.07 238.433 3328.16 234.35C3318.36 230.267 3307.27 228.225 3294.91 228.225C3282.54 228.225 3271.4 230.267 3261.48 234.35C3251.68 238.433 3243.28 244.325 3236.28 252.025C3229.4 259.725 3224.09 269.117 3220.36 280.2C3216.62 291.167 3214.76 303.592 3214.76 317.475C3214.76 331.358 3216.62 343.842 3220.36 354.925C3224.09 365.892 3229.4 375.225 3236.28 382.925C3243.28 390.508 3251.68 396.342 3261.48 400.425C3271.4 404.508 3282.54 406.55 3294.91 406.55C3307.27 406.55 3318.36 404.508 3328.16 400.425C3338.07 396.342 3346.47 390.508 3353.36 382.925C3360.24 375.225 3365.55 365.892 3369.28 354.925C3373.02 343.842 3374.88 331.358 3374.88 317.475ZM3677.67 190.95V444H3653.52C3649.79 444 3646.64 443.417 3644.07 442.25C3641.62 440.967 3639.23 438.867 3636.9 435.95L3504.77 267.25C3505.47 274.95 3505.82 282.067 3505.82 288.6V444H3464.35V190.95H3489.02C3491.01 190.95 3492.7 191.067 3494.1 191.3C3495.62 191.417 3496.9 191.767 3497.95 192.35C3499.12 192.817 3500.22 193.575 3501.27 194.625C3502.32 195.558 3503.49 196.842 3504.77 198.475L3637.42 367.875C3637.07 363.792 3636.78 359.767 3636.55 355.8C3636.32 351.833 3636.2 348.158 3636.2 344.775V190.95H3677.67ZM3868.78 236.975C3867.38 239.425 3865.86 241.233 3864.23 242.4C3862.71 243.45 3860.78 243.975 3858.45 243.975C3856 243.975 3853.32 243.1 3850.4 241.35C3847.6 239.483 3844.22 237.442 3840.25 235.225C3836.28 233.008 3831.62 231.025 3826.25 229.275C3821 227.408 3814.76 226.475 3807.53 226.475C3800.99 226.475 3795.28 227.292 3790.38 228.925C3785.48 230.442 3781.33 232.6 3777.95 235.4C3774.68 238.2 3772.23 241.583 3770.6 245.55C3768.97 249.4 3768.15 253.658 3768.15 258.325C3768.15 264.275 3769.78 269.233 3773.05 273.2C3776.43 277.167 3780.87 280.55 3786.35 283.35C3791.83 286.15 3798.08 288.658 3805.08 290.875C3812.08 293.092 3819.25 295.483 3826.6 298.05C3833.95 300.5 3841.13 303.417 3848.13 306.8C3855.13 310.067 3861.37 314.267 3866.85 319.4C3872.33 324.417 3876.71 330.6 3879.98 337.95C3883.36 345.3 3885.05 354.225 3885.05 364.725C3885.05 376.158 3883.07 386.892 3879.1 396.925C3875.25 406.842 3869.53 415.533 3861.95 423C3854.48 430.35 3845.33 436.183 3834.48 440.5C3823.63 444.7 3811.2 446.8 3797.2 446.8C3789.15 446.8 3781.22 445.983 3773.4 444.35C3765.58 442.833 3758.06 440.617 3750.83 437.7C3743.71 434.783 3737 431.283 3730.7 427.2C3724.4 423.117 3718.8 418.567 3713.9 413.55L3727.73 390.975C3728.89 389.342 3730.41 388 3732.28 386.95C3734.14 385.783 3736.13 385.2 3738.23 385.2C3741.14 385.2 3744.29 386.425 3747.68 388.875C3751.06 391.208 3755.08 393.833 3759.75 396.75C3764.42 399.667 3769.84 402.35 3776.03 404.8C3782.33 407.133 3789.85 408.3 3798.6 408.3C3812.02 408.3 3822.4 405.15 3829.75 398.85C3837.1 392.433 3840.78 383.275 3840.78 371.375C3840.78 364.725 3839.08 359.3 3835.7 355.1C3832.43 350.9 3828.06 347.4 3822.58 344.6C3817.09 341.683 3810.85 339.233 3803.85 337.25C3796.85 335.267 3789.73 333.108 3782.5 330.775C3775.27 328.442 3768.15 325.642 3761.15 322.375C3754.15 319.108 3747.91 314.85 3742.43 309.6C3736.94 304.35 3732.51 297.817 3729.13 290C3725.86 282.067 3724.23 272.325 3724.23 260.775C3724.23 251.558 3726.03 242.575 3729.65 233.825C3733.38 225.075 3738.75 217.317 3745.75 210.55C3752.75 203.783 3761.38 198.358 3771.65 194.275C3781.92 190.192 3793.7 188.15 3807 188.15C3821.93 188.15 3835.7 190.483 3848.3 195.15C3860.9 199.817 3871.63 206.35 3880.5 214.75L3868.78 236.975Z" fill="white"/>
</g>
<path id="subtext" d="M911.312 582.062H903.438V650.5H911.312V582.062ZM934.188 582.062H928.188V650.5H935.5V595.562L976.938 650.5H982.938V582.062H975.438V637.188L934.188 582.062ZM1005.81 582.062H999.812V650.5H1007.12V595.562L1048.56 650.5H1054.56V582.062H1047.06V637.188L1005.81 582.062ZM1069 616.375C1069 637.75 1081 651.25 1100.12 651.25C1119.06 651.25 1131.25 637.75 1131.25 616.188C1131.25 594.812 1119.44 581.312 1100.12 581.312C1080.81 581.312 1069 594.812 1069 616.375ZM1123 616.188C1123 634.188 1114.56 644.5 1100.12 644.5C1085.5 644.5 1077.06 634.188 1077.06 616.188C1077.06 598.188 1085.5 588.062 1100.12 588.062C1114.56 588.062 1123 598.188 1123 616.188ZM1145.88 582.062H1137.44L1167.25 650.5H1174.19L1204 582.062H1195.94L1170.81 640.562L1145.88 582.062ZM1242.81 582.062H1235.88L1205.88 650.5H1214.12L1221.62 632.875H1257.44L1264.94 650.5H1273L1242.81 582.062ZM1254.62 626.312H1224.44L1239.44 591.25L1254.62 626.312ZM1307.69 588.812H1331.5V582.062H1275.81V588.812H1299.62V650.5H1307.69V588.812ZM1348.94 582.062H1341.06V650.5H1348.94V582.062ZM1366 582.062H1357.56L1387.38 650.5H1394.31L1424.12 582.062H1416.06L1390.94 640.562L1366 582.062ZM1475.88 643.938H1440.62V619.188H1474V612.438H1440.62V588.625H1475.88V582.062H1432.75V650.5H1475.88V643.938ZM1526.5 642.625C1532.69 648.438 1541.31 651.25 1552 651.25C1567.38 651.25 1577.12 643.562 1577.12 631.938C1577.12 624.062 1572.25 619.375 1565.31 617.125C1561.94 616 1557.44 614.5 1551.62 613.188C1540.75 610.562 1535.5 607.75 1535.5 600.812C1535.5 592.938 1541.88 588.062 1552.56 588.062C1560.25 588.062 1566.62 590.688 1573 596.125L1576.19 589.938C1570.56 584.312 1562.12 581.312 1552.56 581.312C1537.56 581.312 1527.62 589.375 1527.62 601.188C1527.62 609.25 1532.31 614.125 1539.06 616.938C1542.44 618.25 1546.75 619.375 1552 620.688C1563.25 623.312 1569.06 625 1569.25 632.312C1569.44 640 1563.06 644.5 1552 644.5C1542.81 644.5 1536.25 642.25 1529.31 636.625L1526.5 642.625ZM1587.81 616.375C1587.81 637.75 1599.81 651.25 1618.94 651.25C1637.88 651.25 1650.06 637.75 1650.06 616.188C1650.06 594.812 1638.25 581.312 1618.94 581.312C1599.62 581.312 1587.81 594.812 1587.81 616.375ZM1641.81 616.188C1641.81 634.188 1633.38 644.5 1618.94 644.5C1604.31 644.5 1595.88 634.188 1595.88 616.188C1595.88 598.188 1604.31 588.062 1618.94 588.062C1633.38 588.062 1641.81 598.188 1641.81 616.188ZM1706.69 643.75H1672.38V582.062H1664.5V650.5H1706.69V643.75ZM1723 623.688C1723 641.875 1732.38 651.25 1750.19 651.25C1768 651.25 1777.38 641.688 1777.38 623.688V582.062H1769.5V624.438C1769.5 637.75 1762.94 644.5 1750.19 644.5C1737.44 644.5 1730.88 637.75 1730.88 624.438V582.062H1723V623.688ZM1818.25 588.812H1842.06V582.062H1786.38V588.812H1810.19V650.5H1818.25V588.812ZM1859.5 582.062H1851.62V650.5H1859.5V582.062ZM1873.94 616.375C1873.94 637.75 1885.94 651.25 1905.06 651.25C1924 651.25 1936.19 637.75 1936.19 616.188C1936.19 594.812 1924.38 581.312 1905.06 581.312C1885.75 581.312 1873.94 594.812 1873.94 616.375ZM1927.94 616.188C1927.94 634.188 1919.5 644.5 1905.06 644.5C1890.44 644.5 1882 634.188 1882 616.188C1882 598.188 1890.44 588.062 1905.06 588.062C1919.5 588.062 1927.94 598.188 1927.94 616.188ZM1956.62 582.062H1950.62V650.5H1957.94V595.562L1999.38 650.5H2005.38V582.062H1997.88V637.188L1956.62 582.062ZM2018.5 642.625C2024.69 648.438 2033.31 651.25 2044 651.25C2059.38 651.25 2069.12 643.562 2069.12 631.938C2069.12 624.062 2064.25 619.375 2057.31 617.125C2053.94 616 2049.44 614.5 2043.62 613.188C2032.75 610.562 2027.5 607.75 2027.5 600.812C2027.5 592.938 2033.88 588.062 2044.56 588.062C2052.25 588.062 2058.62 590.688 2065 596.125L2068.19 589.938C2062.56 584.312 2054.12 581.312 2044.56 581.312C2029.56 581.312 2019.62 589.375 2019.62 601.188C2019.62 609.25 2024.31 614.125 2031.06 616.938C2034.44 618.25 2038.75 619.375 2044 620.688C2055.25 623.312 2061.06 625 2061.25 632.312C2061.44 640 2055.06 644.5 2044 644.5C2034.81 644.5 2028.25 642.25 2021.31 636.625L2018.5 642.625ZM2127.62 619.188H2160.06V612.438H2127.62V588.812H2161.94V582.062H2119.75V650.5H2127.62V619.188ZM2176.38 616.375C2176.38 637.75 2188.38 651.25 2207.5 651.25C2226.44 651.25 2238.62 637.75 2238.62 616.188C2238.62 594.812 2226.81 581.312 2207.5 581.312C2188.19 581.312 2176.38 594.812 2176.38 616.375ZM2230.38 616.188C2230.38 634.188 2221.94 644.5 2207.5 644.5C2192.88 644.5 2184.44 634.188 2184.44 616.188C2184.44 598.188 2192.88 588.062 2207.5 588.062C2221.94 588.062 2230.38 598.188 2230.38 616.188ZM2298.06 627.438C2296.19 622.188 2293.38 619.562 2289.44 619C2298.25 616.375 2303.12 610 2303.12 601.188C2303.12 588.812 2294.88 582.062 2280.25 582.062H2253.06V650.5H2260.94V620.688H2278C2284.56 620.688 2287.94 622.188 2290 627.812L2298.44 650.5H2306.69L2298.06 627.438ZM2260.94 588.625H2279.5C2290.38 588.625 2295.25 592.75 2295.25 601.188C2295.25 609.812 2290 614.125 2279.5 614.125H2260.94V588.625ZM2412.25 631.938C2412.25 623.5 2407.56 617.5 2399.88 615.438C2406.62 612.812 2410.56 607.375 2410.56 600.062C2410.56 588.625 2402.5 582.062 2388.44 582.062H2361.06V650.5H2389.56C2404 650.5 2412.25 643.75 2412.25 631.938ZM2387.31 588.625C2397.62 588.625 2402.88 592.562 2402.88 600.438C2402.88 608.312 2397.62 612.438 2387.31 612.438H2368.94V588.625H2387.31ZM2404.38 631.75C2404.38 640 2399.5 643.938 2388.81 643.938H2368.94V619.188H2388.81C2399.31 619.188 2404.38 623.312 2404.38 631.75ZM2472.25 643.938H2437V619.188H2470.38V612.438H2437V588.625H2472.25V582.062H2429.12V650.5H2472.25V643.938ZM2513.69 588.812H2537.5V582.062H2481.81V588.812H2505.62V650.5H2513.69V588.812ZM2571.62 588.812H2595.44V582.062H2539.75V588.812H2563.56V650.5H2571.62V588.812ZM2648.12 643.938H2612.88V619.188H2646.25V612.438H2612.88V588.625H2648.12V582.062H2605V650.5H2648.12V643.938ZM2710 627.438C2708.12 622.188 2705.31 619.562 2701.38 619C2710.19 616.375 2715.06 610 2715.06 601.188C2715.06 588.812 2706.81 582.062 2692.19 582.062H2665V650.5H2672.88V620.688H2689.94C2696.5 620.688 2699.88 622.188 2701.94 627.812L2710.38 650.5H2718.62L2710 627.438ZM2672.88 588.625H2691.44C2702.31 588.625 2707.19 592.75 2707.19 601.188C2707.19 609.812 2701.94 614.125 2691.44 614.125H2672.88V588.625ZM2824.19 631.938C2824.19 623.5 2819.5 617.5 2811.81 615.438C2818.56 612.812 2822.5 607.375 2822.5 600.062C2822.5 588.625 2814.44 582.062 2800.38 582.062H2773V650.5H2801.5C2815.94 650.5 2824.19 643.75 2824.19 631.938ZM2799.25 588.625C2809.56 588.625 2814.81 592.562 2814.81 600.438C2814.81 608.312 2809.56 612.438 2799.25 612.438H2780.88V588.625H2799.25ZM2816.31 631.75C2816.31 640 2811.44 643.938 2800.75 643.938H2780.88V619.188H2800.75C2811.25 619.188 2816.31 623.312 2816.31 631.75ZM2840.5 623.688C2840.5 641.875 2849.88 651.25 2867.69 651.25C2885.5 651.25 2894.88 641.688 2894.88 623.688V582.062H2887V624.438C2887 637.75 2880.44 644.5 2867.69 644.5C2854.94 644.5 2848.38 637.75 2848.38 624.438V582.062H2840.5V623.688ZM2907.44 642.625C2913.62 648.438 2922.25 651.25 2932.94 651.25C2948.31 651.25 2958.06 643.562 2958.06 631.938C2958.06 624.062 2953.19 619.375 2946.25 617.125C2942.88 616 2938.38 614.5 2932.56 613.188C2921.69 610.562 2916.44 607.75 2916.44 600.812C2916.44 592.938 2922.81 588.062 2933.5 588.062C2941.19 588.062 2947.56 590.688 2953.94 596.125L2957.12 589.938C2951.5 584.312 2943.06 581.312 2933.5 581.312C2918.5 581.312 2908.56 589.375 2908.56 601.188C2908.56 609.25 2913.25 614.125 2920 616.938C2923.38 618.25 2927.69 619.375 2932.94 620.688C2944.19 623.312 2950 625 2950.19 632.312C2950.38 640 2944 644.5 2932.94 644.5C2923.75 644.5 2917.19 642.25 2910.25 636.625L2907.44 642.625ZM2979.06 582.062H2971.19V650.5H2979.06V582.062ZM3001.94 582.062H2995.94V650.5H3003.25V595.562L3044.69 650.5H3050.69V582.062H3043.19V637.188L3001.94 582.062ZM3110.69 643.938H3075.44V619.188H3108.81V612.438H3075.44V588.625H3110.69V582.062H3067.56V650.5H3110.69V643.938ZM3123.81 642.625C3130 648.438 3138.62 651.25 3149.31 651.25C3164.69 651.25 3174.44 643.562 3174.44 631.938C3174.44 624.062 3169.56 619.375 3162.62 617.125C3159.25 616 3154.75 614.5 3148.94 613.188C3138.06 610.562 3132.81 607.75 3132.81 600.812C3132.81 592.938 3139.19 588.062 3149.88 588.062C3157.56 588.062 3163.94 590.688 3170.31 596.125L3173.5 589.938C3167.88 584.312 3159.44 581.312 3149.88 581.312C3134.88 581.312 3124.94 589.375 3124.94 601.188C3124.94 609.25 3129.62 614.125 3136.38 616.938C3139.75 618.25 3144.06 619.375 3149.31 620.688C3160.56 623.312 3166.38 625 3166.56 632.312C3166.75 640 3160.38 644.5 3149.31 644.5C3140.12 644.5 3133.56 642.25 3126.62 636.625L3123.81 642.625ZM3183.81 642.625C3190 648.438 3198.62 651.25 3209.31 651.25C3224.69 651.25 3234.44 643.562 3234.44 631.938C3234.44 624.062 3229.56 619.375 3222.62 617.125C3219.25 616 3214.75 614.5 3208.94 613.188C3198.06 610.562 3192.81 607.75 3192.81 600.812C3192.81 592.938 3199.19 588.062 3209.88 588.062C3217.56 588.062 3223.94 590.688 3230.31 596.125L3233.5 589.938C3227.88 584.312 3219.44 581.312 3209.88 581.312C3194.88 581.312 3184.94 589.375 3184.94 601.188C3184.94 609.25 3189.62 614.125 3196.38 616.938C3199.75 618.25 3204.06 619.375 3209.31 620.688C3220.56 623.312 3226.38 625 3226.56 632.312C3226.75 640 3220.38 644.5 3209.31 644.5C3200.12 644.5 3193.56 642.25 3186.62 636.625L3183.81 642.625ZM3282.62 616.375C3282.62 637.75 3294.62 651.25 3313.75 651.25C3332.69 651.25 3344.88 637.75 3344.88 616.188C3344.88 594.812 3333.06 581.312 3313.75 581.312C3294.44 581.312 3282.62 594.812 3282.62 616.375ZM3336.62 616.188C3336.62 634.188 3328.19 644.5 3313.75 644.5C3299.12 644.5 3290.69 634.188 3290.69 616.188C3290.69 598.188 3299.12 588.062 3313.75 588.062C3328.19 588.062 3336.62 598.188 3336.62 616.188ZM3367.19 650.5V620.5H3386.5C3400.56 620.5 3409 613.188 3409 601.188C3409 589.375 3400.75 582.062 3386.5 582.062H3359.31V650.5H3367.19ZM3367.19 588.625H3385.94C3396.06 588.625 3401.12 593.125 3401.12 601.188C3401.12 609.438 3396.06 613.938 3385.94 613.938H3367.19V588.625ZM3469 643.938H3433.75V619.188H3467.12V612.438H3433.75V588.625H3469V582.062H3425.88V650.5H3469V643.938ZM3530.88 627.438C3529 622.188 3526.19 619.562 3522.25 619C3531.06 616.375 3535.94 610 3535.94 601.188C3535.94 588.812 3527.69 582.062 3513.06 582.062H3485.88V650.5H3493.75V620.688H3510.81C3517.38 620.688 3520.75 622.188 3522.81 627.812L3531.25 650.5H3539.5L3530.88 627.438ZM3493.75 588.625H3512.31C3523.19 588.625 3528.06 592.75 3528.06 601.188C3528.06 609.812 3522.81 614.125 3512.31 614.125H3493.75V588.625ZM3586.56 582.062H3579.62L3549.62 650.5H3557.88L3565.38 632.875H3601.19L3608.69 650.5H3616.75L3586.56 582.062ZM3598.38 626.312H3568.19L3583.19 591.25L3598.38 626.312ZM3651.44 588.812H3675.25V582.062H3619.56V588.812H3643.38V650.5H3651.44V588.812ZM3692.69 582.062H3684.81V650.5H3692.69V582.062ZM3707.12 616.375C3707.12 637.75 3719.12 651.25 3738.25 651.25C3757.19 651.25 3769.38 637.75 3769.38 616.188C3769.38 594.812 3757.56 581.312 3738.25 581.312C3718.94 581.312 3707.12 594.812 3707.12 616.375ZM3761.12 616.188C3761.12 634.188 3752.69 644.5 3738.25 644.5C3723.62 644.5 3715.19 634.188 3715.19 616.188C3715.19 598.188 3723.62 588.062 3738.25 588.062C3752.69 588.062 3761.12 598.188 3761.12 616.188ZM3789.81 582.062H3783.81V650.5H3791.12V595.562L3832.56 650.5H3838.56V582.062H3831.06V637.188L3789.81 582.062ZM3851.69 642.625C3857.88 648.438 3866.5 651.25 3877.19 651.25C3892.56 651.25 3902.31 643.562 3902.31 631.938C3902.31 624.062 3897.44 619.375 3890.5 617.125C3887.12 616 3882.62 614.5 3876.81 613.188C3865.94 610.562 3860.69 607.75 3860.69 600.812C3860.69 592.938 3867.06 588.062 3877.75 588.062C3885.44 588.062 3891.81 590.688 3898.19 596.125L3901.38 589.938C3895.75 584.312 3887.31 581.312 3877.75 581.312C3862.75 581.312 3852.81 589.375 3852.81 601.188C3852.81 609.25 3857.5 614.125 3864.25 616.938C3867.62 618.25 3871.94 619.375 3877.19 620.688C3888.44 623.312 3894.25 625 3894.44 632.312C3894.62 640 3888.25 644.5 3877.19 644.5C3868 644.5 3861.44 642.25 3854.5 636.625L3851.69 642.625Z" fill="white"/>
</g>
</g>
<defs>
<filter id="filter0_d" x="0" y="0" width="808" height="808" filterUnits="userSpaceOnUse" color-interpolation-filters="sRGB">
<feFlood flood-opacity="0" result="BackgroundImageFix"/>
<feColorMatrix in="SourceAlpha" type="matrix" values="0 0 0 0 0 0 0 0 0 0 0 0 0 0 0 0 0 0 127 0"/>
<feOffset dy="4"/>
<feGaussianBlur stdDeviation="2"/>
<feColorMatrix type="matrix" values="0 0 0 0 0 0 0 0 0 0 0 0 0 0 0 0 0 0 0.25 0"/>
<feBlend mode="normal" in2="BackgroundImageFix" result="effect1_dropShadow"/>
<feBlend mode="normal" in="SourceGraphic" in2="effect1_dropShadow" result="shape"/>
</filter>
<filter id="filter1_d" x="867.125" y="188.15" width="3021.93" height="266.65" filterUnits="userSpaceOnUse" color-interpolation-filters="sRGB">
<feFlood flood-opacity="0" result="BackgroundImageFix"/>
<feColorMatrix in="SourceAlpha" type="matrix" values="0 0 0 0 0 0 0 0 0 0 0 0 0 0 0 0 0 0 127 0"/>
<feOffset dy="4"/>
<feGaussianBlur stdDeviation="2"/>
<feColorMatrix type="matrix" values="0 0 0 0 0 0 0 0 0 0 0 0 0 0 0 0 0 0 0.25 0"/>
<feBlend mode="normal" in2="BackgroundImageFix" result="effect1_dropShadow"/>
<feBlend mode="normal" in="SourceGraphic" in2="effect1_dropShadow" result="shape"/>
</filter>
<clipPath id="clip0">
<rect width="3425" height="739" fill="white" transform="translate(831 55)"/>
</clipPath>
</defs>
</svg>
