<svg width="1927" height="550" viewBox="0 0 1927 550" fill="none" xmlns="http://www.w3.org/2000/svg">
<g id="Group 1">
<g id="icon">
<circle id="Ellipse 1" cx="200" cy="258" r="200" fill="black"/>
<rect id="Rectangle 1" x="88" y="146" width="224" height="224" fill="white"/>
<g id="Ellipse 3" style="mix-blend-mode:multiply">
<circle cx="200" cy="258" r="128" fill="black"/>
</g>
<circle id="Ellipse 2" cx="200" cy="258" r="120" fill="white"/>
<circle id="Ellipse 4" cx="200" cy="258" r="88" fill="black"/>
</g>
<g id="textid" clip-path="url(#clip0)">
<rect width="1500" height="550" transform="translate(427)" fill="white"/>
<g id="textGroup" filter="url(#filter0_d)">
<path d="M585.2 192.16C585.2 200.64 583.787 208.507 580.96 215.76C578.187 222.96 574.24 229.2 569.12 234.48C564 239.76 557.84 243.893 550.64 246.88C543.44 249.813 535.44 251.28 526.64 251.28C517.893 251.28 509.92 249.813 502.72 246.88C495.52 243.893 489.333 239.76 484.16 234.48C479.04 229.2 475.067 222.96 472.24 215.76C469.413 208.507 468 200.64 468 192.16C468 183.68 469.413 175.84 472.24 168.64C475.067 161.387 479.04 155.12 484.16 149.84C489.333 144.56 495.52 140.453 502.72 137.52C509.92 134.533 517.893 133.04 526.64 133.04C532.507 133.04 538.027 133.733 543.2 135.12C548.373 136.453 553.12 138.373 557.44 140.88C561.76 143.333 565.627 146.347 569.04 149.92C572.507 153.44 575.44 157.387 577.84 161.76C580.24 166.133 582.053 170.88 583.28 176C584.56 181.12 585.2 186.507 585.2 192.16ZM563.2 192.16C563.2 185.813 562.347 180.133 560.64 175.12C558.933 170.053 556.507 165.76 553.36 162.24C550.213 158.72 546.373 156.027 541.84 154.16C537.36 152.293 532.293 151.36 526.64 151.36C520.987 151.36 515.893 152.293 511.36 154.16C506.88 156.027 503.04 158.72 499.84 162.24C496.693 165.76 494.267 170.053 492.56 175.12C490.853 180.133 490 185.813 490 192.16C490 198.507 490.853 204.213 492.56 209.28C494.267 214.293 496.693 218.56 499.84 222.08C503.04 225.547 506.88 228.213 511.36 230.08C515.893 231.947 520.987 232.88 526.64 232.88C532.293 232.88 537.36 231.947 541.84 230.08C546.373 228.213 550.213 225.547 553.36 222.08C556.507 218.56 558.933 214.293 560.64 209.28C562.347 204.213 563.2 198.507 563.2 192.16ZM729.539 134.32V250H710.579V175.28C710.579 172.293 710.739 169.067 711.059 165.6L676.099 231.28C674.445 234.427 671.912 236 668.499 236H665.459C662.045 236 659.512 234.427 657.859 231.28L622.499 165.36C622.659 167.12 622.792 168.853 622.899 170.56C623.005 172.267 623.059 173.84 623.059 175.28V250H604.099V134.32H620.339C621.299 134.32 622.125 134.347 622.819 134.4C623.512 134.453 624.125 134.587 624.659 134.8C625.245 135.013 625.752 135.36 626.179 135.84C626.659 136.32 627.112 136.96 627.539 137.76L662.179 202C663.085 203.707 663.912 205.467 664.659 207.28C665.459 209.093 666.232 210.96 666.979 212.88C667.725 210.907 668.499 209.013 669.299 207.2C670.099 205.333 670.952 203.547 671.859 201.84L706.019 137.76C706.445 136.96 706.899 136.32 707.379 135.84C707.859 135.36 708.365 135.013 708.899 134.8C709.485 134.587 710.125 134.453 710.819 134.4C711.512 134.347 712.339 134.32 713.299 134.32H729.539ZM852.869 134.32V250H841.829C840.122 250 838.682 249.733 837.509 249.2C836.389 248.613 835.295 247.653 834.229 246.32L773.829 169.2C774.149 172.72 774.309 175.973 774.309 178.96V250H755.349V134.32H766.629C767.535 134.32 768.309 134.373 768.949 134.48C769.642 134.533 770.229 134.693 770.709 134.96C771.242 135.173 771.749 135.52 772.229 136C772.709 136.427 773.242 137.013 773.829 137.76L834.469 215.2C834.309 213.333 834.175 211.493 834.069 209.68C833.962 207.867 833.909 206.187 833.909 204.64V134.32H852.869ZM900.23 250H878.63V134.32H900.23V250ZM1026.64 155.36C1026 156.48 1025.3 157.307 1024.56 157.84C1023.86 158.32 1022.98 158.56 1021.92 158.56C1020.8 158.56 1019.57 158.16 1018.24 157.36C1016.96 156.507 1015.41 155.573 1013.6 154.56C1011.78 153.547 1009.65 152.64 1007.2 151.84C1004.8 150.987 1001.94 150.56 998.636 150.56C995.65 150.56 993.036 150.933 990.796 151.68C988.556 152.373 986.663 153.36 985.116 154.64C983.623 155.92 982.503 157.467 981.756 159.28C981.01 161.04 980.636 162.987 980.636 165.12C980.636 167.84 981.383 170.107 982.876 171.92C984.423 173.733 986.45 175.28 988.956 176.56C991.463 177.84 994.316 178.987 997.516 180C1000.72 181.013 1004 182.107 1007.36 183.28C1010.72 184.4 1014 185.733 1017.2 187.28C1020.4 188.773 1023.25 190.693 1025.76 193.04C1028.26 195.333 1030.26 198.16 1031.76 201.52C1033.3 204.88 1034.08 208.96 1034.08 213.76C1034.08 218.987 1033.17 223.893 1031.36 228.48C1029.6 233.013 1026.98 236.987 1023.52 240.4C1020.1 243.76 1015.92 246.427 1010.96 248.4C1006 250.32 1000.32 251.28 993.916 251.28C990.236 251.28 986.61 250.907 983.036 250.16C979.463 249.467 976.023 248.453 972.716 247.12C969.463 245.787 966.396 244.187 963.516 242.32C960.636 240.453 958.076 238.373 955.836 236.08L962.156 225.76C962.69 225.013 963.383 224.4 964.236 223.92C965.09 223.387 965.996 223.12 966.956 223.12C968.29 223.12 969.73 223.68 971.276 224.8C972.823 225.867 974.663 227.067 976.796 228.4C978.93 229.733 981.41 230.96 984.236 232.08C987.116 233.147 990.556 233.68 994.556 233.68C1000.69 233.68 1005.44 232.24 1008.8 229.36C1012.16 226.427 1013.84 222.24 1013.84 216.8C1013.84 213.76 1013.06 211.28 1011.52 209.36C1010.02 207.44 1008.02 205.84 1005.52 204.56C1003.01 203.227 1000.16 202.107 996.956 201.2C993.756 200.293 990.503 199.307 987.196 198.24C983.89 197.173 980.636 195.893 977.436 194.4C974.236 192.907 971.383 190.96 968.876 188.56C966.37 186.16 964.343 183.173 962.796 179.6C961.303 175.973 960.556 171.52 960.556 166.24C960.556 162.027 961.383 157.92 963.036 153.92C964.743 149.92 967.196 146.373 970.396 143.28C973.596 140.187 977.543 137.707 982.236 135.84C986.93 133.973 992.316 133.04 998.396 133.04C1005.22 133.04 1011.52 134.107 1017.28 136.24C1023.04 138.373 1027.94 141.36 1032 145.2L1026.64 155.36ZM1163.17 192.16C1163.17 200.64 1161.76 208.507 1158.93 215.76C1156.16 222.96 1152.21 229.2 1147.09 234.48C1141.97 239.76 1135.81 243.893 1128.61 246.88C1121.41 249.813 1113.41 251.28 1104.61 251.28C1095.86 251.28 1087.89 249.813 1080.69 246.88C1073.49 243.893 1067.3 239.76 1062.13 234.48C1057.01 229.2 1053.04 222.96 1050.21 215.76C1047.38 208.507 1045.97 200.64 1045.97 192.16C1045.97 183.68 1047.38 175.84 1050.21 168.64C1053.04 161.387 1057.01 155.12 1062.13 149.84C1067.3 144.56 1073.49 140.453 1080.69 137.52C1087.89 134.533 1095.86 133.04 1104.61 133.04C1110.48 133.04 1116 133.733 1121.17 135.12C1126.34 136.453 1131.09 138.373 1135.41 140.88C1139.73 143.333 1143.6 146.347 1147.01 149.92C1150.48 153.44 1153.41 157.387 1155.81 161.76C1158.21 166.133 1160.02 170.88 1161.25 176C1162.53 181.12 1163.17 186.507 1163.17 192.16ZM1141.17 192.16C1141.17 185.813 1140.32 180.133 1138.61 175.12C1136.9 170.053 1134.48 165.76 1131.33 162.24C1128.18 158.72 1124.34 156.027 1119.81 154.16C1115.33 152.293 1110.26 151.36 1104.61 151.36C1098.96 151.36 1093.86 152.293 1089.33 154.16C1084.85 156.027 1081.01 158.72 1077.81 162.24C1074.66 165.76 1072.24 170.053 1070.53 175.12C1068.82 180.133 1067.97 185.813 1067.97 192.16C1067.97 198.507 1068.82 204.213 1070.53 209.28C1072.24 214.293 1074.66 218.56 1077.81 222.08C1081.01 225.547 1084.85 228.213 1089.33 230.08C1093.86 231.947 1098.96 232.88 1104.61 232.88C1110.26 232.88 1115.33 231.947 1119.81 230.08C1124.34 228.213 1128.18 225.547 1131.33 222.08C1134.48 218.56 1136.9 214.293 1138.61 209.28C1140.32 204.213 1141.17 198.507 1141.17 192.16ZM1249.83 232.24V250H1182.07V134.32H1203.59V232.24H1249.83ZM1308.63 232.64C1312.79 232.64 1316.49 231.947 1319.75 230.56C1323.05 229.173 1325.83 227.227 1328.07 224.72C1330.31 222.213 1332.01 219.173 1333.19 215.6C1334.41 212.027 1335.03 208.027 1335.03 203.6V134.32H1356.55V203.6C1356.55 210.48 1355.43 216.853 1353.19 222.72C1351 228.533 1347.83 233.573 1343.67 237.84C1339.56 242.053 1334.55 245.36 1328.63 247.76C1322.71 250.107 1316.04 251.28 1308.63 251.28C1301.16 251.28 1294.47 250.107 1288.55 247.76C1282.63 245.36 1277.59 242.053 1273.43 237.84C1269.32 233.573 1266.15 228.533 1263.91 222.72C1261.72 216.853 1260.63 210.48 1260.63 203.6V134.32H1282.15V203.52C1282.15 207.947 1282.73 211.947 1283.91 215.52C1285.13 219.093 1286.87 222.16 1289.11 224.72C1291.4 227.227 1294.17 229.173 1297.43 230.56C1300.73 231.947 1304.47 232.64 1308.63 232.64ZM1461.62 152H1426.74V250H1405.22V152H1370.34V134.32H1461.62V152ZM1498.36 250H1476.76V134.32H1498.36V250ZM1634.58 192.16C1634.58 200.64 1633.16 208.507 1630.34 215.76C1627.56 222.96 1623.62 229.2 1618.5 234.48C1613.38 239.76 1607.22 243.893 1600.02 246.88C1592.82 249.813 1584.82 251.28 1576.02 251.28C1567.27 251.28 1559.3 249.813 1552.1 246.88C1544.9 243.893 1538.71 239.76 1533.54 234.48C1528.42 229.2 1524.44 222.96 1521.62 215.76C1518.79 208.507 1517.38 200.64 1517.38 192.16C1517.38 183.68 1518.79 175.84 1521.62 168.64C1524.44 161.387 1528.42 155.12 1533.54 149.84C1538.71 144.56 1544.9 140.453 1552.1 137.52C1559.3 134.533 1567.27 133.04 1576.02 133.04C1581.88 133.04 1587.4 133.733 1592.58 135.12C1597.75 136.453 1602.5 138.373 1606.82 140.88C1611.14 143.333 1615 146.347 1618.42 149.92C1621.88 153.44 1624.82 157.387 1627.22 161.76C1629.62 166.133 1631.43 170.88 1632.66 176C1633.94 181.12 1634.58 186.507 1634.58 192.16ZM1612.58 192.16C1612.58 185.813 1611.72 180.133 1610.02 175.12C1608.31 170.053 1605.88 165.76 1602.74 162.24C1599.59 158.72 1595.75 156.027 1591.22 154.16C1586.74 152.293 1581.67 151.36 1576.02 151.36C1570.36 151.36 1565.27 152.293 1560.74 154.16C1556.26 156.027 1552.42 158.72 1549.22 162.24C1546.07 165.76 1543.64 170.053 1541.94 175.12C1540.23 180.133 1539.38 185.813 1539.38 192.16C1539.38 198.507 1540.23 204.213 1541.94 209.28C1543.64 214.293 1546.07 218.56 1549.22 222.08C1552.42 225.547 1556.26 228.213 1560.74 230.08C1565.27 231.947 1570.36 232.88 1576.02 232.88C1581.67 232.88 1586.74 231.947 1591.22 230.08C1595.75 228.213 1599.59 225.547 1602.74 222.08C1605.88 218.56 1608.31 214.293 1610.02 209.28C1611.72 204.213 1612.58 198.507 1612.58 192.16ZM1750.99 134.32V250H1739.95C1738.25 250 1736.81 249.733 1735.63 249.2C1734.51 248.613 1733.42 247.653 1732.35 246.32L1671.95 169.2C1672.27 172.72 1672.43 175.973 1672.43 178.96V250H1653.47V134.32H1664.75C1665.66 134.32 1666.43 134.373 1667.07 134.48C1667.77 134.533 1668.35 134.693 1668.83 134.96C1669.37 135.173 1669.87 135.52 1670.35 136C1670.83 136.427 1671.37 137.013 1671.95 137.76L1732.59 215.2C1732.43 213.333 1732.3 211.493 1732.19 209.68C1732.09 207.867 1732.03 206.187 1732.03 204.64V134.32H1750.99ZM1838.36 155.36C1837.72 156.48 1837.02 157.307 1836.28 157.84C1835.58 158.32 1834.7 158.56 1833.64 158.56C1832.52 158.56 1831.29 158.16 1829.96 157.36C1828.68 156.507 1827.13 155.573 1825.32 154.56C1823.5 153.547 1821.37 152.64 1818.92 151.84C1816.52 150.987 1813.66 150.56 1810.36 150.56C1807.37 150.56 1804.76 150.933 1802.52 151.68C1800.28 152.373 1798.38 153.36 1796.84 154.64C1795.34 155.92 1794.22 157.467 1793.48 159.28C1792.73 161.04 1792.36 162.987 1792.36 165.12C1792.36 167.84 1793.1 170.107 1794.6 171.92C1796.14 173.733 1798.17 175.28 1800.68 176.56C1803.18 177.84 1806.04 178.987 1809.24 180C1812.44 181.013 1815.72 182.107 1819.08 183.28C1822.44 184.4 1825.72 185.733 1828.92 187.28C1832.12 188.773 1834.97 190.693 1837.48 193.04C1839.98 195.333 1841.98 198.16 1843.48 201.52C1845.02 204.88 1845.8 208.96 1845.8 213.76C1845.8 218.987 1844.89 223.893 1843.08 228.48C1841.32 233.013 1838.7 236.987 1835.24 240.4C1831.82 243.76 1827.64 246.427 1822.68 248.4C1817.72 250.32 1812.04 251.28 1805.64 251.28C1801.96 251.28 1798.33 250.907 1794.76 250.16C1791.18 249.467 1787.74 248.453 1784.43 247.12C1781.18 245.787 1778.12 244.187 1775.24 242.32C1772.36 240.453 1769.8 238.373 1767.56 236.08L1773.88 225.76C1774.41 225.013 1775.1 224.4 1775.96 223.92C1776.81 223.387 1777.72 223.12 1778.68 223.12C1780.01 223.12 1781.45 223.68 1783 224.8C1784.54 225.867 1786.38 227.067 1788.52 228.4C1790.65 229.733 1793.13 230.96 1795.96 232.08C1798.84 233.147 1802.28 233.68 1806.28 233.68C1812.41 233.68 1817.16 232.24 1820.52 229.36C1823.88 226.427 1825.56 222.24 1825.56 216.8C1825.56 213.76 1824.78 211.28 1823.24 209.36C1821.74 207.44 1819.74 205.84 1817.24 204.56C1814.73 203.227 1811.88 202.107 1808.68 201.2C1805.48 200.293 1802.22 199.307 1798.92 198.24C1795.61 197.173 1792.36 195.893 1789.16 194.4C1785.96 192.907 1783.1 190.96 1780.6 188.56C1778.09 186.16 1776.06 183.173 1774.52 179.6C1773.02 175.973 1772.28 171.52 1772.28 166.24C1772.28 162.027 1773.1 157.92 1774.76 153.92C1776.46 149.92 1778.92 146.373 1782.12 143.28C1785.32 140.187 1789.26 137.707 1793.96 135.84C1798.65 133.973 1804.04 133.04 1810.12 133.04C1816.94 133.04 1823.24 134.107 1829 136.24C1834.76 138.373 1839.66 141.36 1843.72 145.2L1838.36 155.36Z" fill="black"/>
</g>
<path id="subtext" d="M469.646 312.998H465.955V345.078H469.646V312.998ZM480.369 312.998H477.557V345.078H480.984V319.326L500.408 345.078H503.221V312.998H499.705V338.838L480.369 312.998ZM513.943 312.998H511.131V345.078H514.559V319.326L533.982 345.078H536.795V312.998H533.279V338.838L513.943 312.998ZM543.562 329.082C543.562 339.102 549.188 345.43 558.152 345.43C567.029 345.43 572.742 339.102 572.742 328.994C572.742 318.975 567.205 312.646 558.152 312.646C549.1 312.646 543.562 318.975 543.562 329.082ZM568.875 328.994C568.875 337.432 564.92 342.266 558.152 342.266C551.297 342.266 547.342 337.432 547.342 328.994C547.342 320.557 551.297 315.811 558.152 315.811C564.92 315.811 568.875 320.557 568.875 328.994ZM579.598 312.998H575.643L589.617 345.078H592.869L606.844 312.998H603.064L591.287 340.42L579.598 312.998ZM625.037 312.998H621.785L607.723 345.078H611.59L615.105 336.816H631.893L635.408 345.078H639.188L625.037 312.998ZM630.574 333.74H616.424L623.455 317.305L630.574 333.74ZM655.447 316.162H666.609V312.998H640.506V316.162H651.668V345.078H655.447V316.162ZM674.783 312.998H671.092V345.078H674.783V312.998ZM682.781 312.998H678.826L692.801 345.078H696.053L710.027 312.998H706.248L694.471 340.42L682.781 312.998ZM734.285 342.002H717.762V330.4H733.406V327.236H717.762V316.074H734.285V312.998H714.07V345.078H734.285V342.002ZM758.016 341.387C760.916 344.111 764.959 345.43 769.969 345.43C777.176 345.43 781.746 341.826 781.746 336.377C781.746 332.686 779.461 330.488 776.209 329.434C774.627 328.906 772.518 328.203 769.793 327.588C764.695 326.357 762.234 325.039 762.234 321.787C762.234 318.096 765.223 315.811 770.232 315.811C773.836 315.811 776.824 317.041 779.812 319.59L781.307 316.689C778.67 314.053 774.715 312.646 770.232 312.646C763.201 312.646 758.543 316.426 758.543 321.963C758.543 325.742 760.74 328.027 763.904 329.346C765.486 329.961 767.508 330.488 769.969 331.104C775.242 332.334 777.967 333.125 778.055 336.553C778.143 340.156 775.154 342.266 769.969 342.266C765.662 342.266 762.586 341.211 759.334 338.574L758.016 341.387ZM786.756 329.082C786.756 339.102 792.381 345.43 801.346 345.43C810.223 345.43 815.936 339.102 815.936 328.994C815.936 318.975 810.398 312.646 801.346 312.646C792.293 312.646 786.756 318.975 786.756 329.082ZM812.068 328.994C812.068 337.432 808.113 342.266 801.346 342.266C794.49 342.266 790.535 337.432 790.535 328.994C790.535 320.557 794.49 315.811 801.346 315.811C808.113 315.811 812.068 320.557 812.068 328.994ZM842.479 341.914H826.395V312.998H822.703V345.078H842.479V341.914ZM850.125 332.51C850.125 341.035 854.52 345.43 862.869 345.43C871.219 345.43 875.613 340.947 875.613 332.51V312.998H871.922V332.861C871.922 339.102 868.846 342.266 862.869 342.266C856.893 342.266 853.816 339.102 853.816 332.861V312.998H850.125V332.51ZM894.773 316.162H905.936V312.998H879.832V316.162H890.994V345.078H894.773V316.162ZM914.109 312.998H910.418V345.078H914.109V312.998ZM920.877 329.082C920.877 339.102 926.502 345.43 935.467 345.43C944.344 345.43 950.057 339.102 950.057 328.994C950.057 318.975 944.52 312.646 935.467 312.646C926.414 312.646 920.877 318.975 920.877 329.082ZM946.189 328.994C946.189 337.432 942.234 342.266 935.467 342.266C928.611 342.266 924.656 337.432 924.656 328.994C924.656 320.557 928.611 315.811 935.467 315.811C942.234 315.811 946.189 320.557 946.189 328.994ZM959.637 312.998H956.824V345.078H960.252V319.326L979.676 345.078H982.488V312.998H978.973V338.838L959.637 312.998ZM988.641 341.387C991.541 344.111 995.584 345.43 1000.59 345.43C1007.8 345.43 1012.37 341.826 1012.37 336.377C1012.37 332.686 1010.09 330.488 1006.83 329.434C1005.25 328.906 1003.14 328.203 1000.42 327.588C995.32 326.357 992.859 325.039 992.859 321.787C992.859 318.096 995.848 315.811 1000.86 315.811C1004.46 315.811 1007.45 317.041 1010.44 319.59L1011.93 316.689C1009.29 314.053 1005.34 312.646 1000.86 312.646C993.826 312.646 989.168 316.426 989.168 321.963C989.168 325.742 991.365 328.027 994.529 329.346C996.111 329.961 998.133 330.488 1000.59 331.104C1005.87 332.334 1008.59 333.125 1008.68 336.553C1008.77 340.156 1005.78 342.266 1000.59 342.266C996.287 342.266 993.211 341.211 989.959 338.574L988.641 341.387ZM1039.79 330.4H1055V327.236H1039.79V316.162H1055.88V312.998H1036.1V345.078H1039.79V330.4ZM1062.64 329.082C1062.64 339.102 1068.27 345.43 1077.23 345.43C1086.11 345.43 1091.82 339.102 1091.82 328.994C1091.82 318.975 1086.29 312.646 1077.23 312.646C1068.18 312.646 1062.64 318.975 1062.64 329.082ZM1087.96 328.994C1087.96 337.432 1084 342.266 1077.23 342.266C1070.38 342.266 1066.42 337.432 1066.42 328.994C1066.42 320.557 1070.38 315.811 1077.23 315.811C1084 315.811 1087.96 320.557 1087.96 328.994ZM1119.69 334.268C1118.81 331.807 1117.49 330.576 1115.64 330.312C1119.77 329.082 1122.06 326.094 1122.06 321.963C1122.06 316.162 1118.19 312.998 1111.34 312.998H1098.59V345.078H1102.28V331.104H1110.28C1113.36 331.104 1114.94 331.807 1115.91 334.443L1119.86 345.078H1123.73L1119.69 334.268ZM1102.28 316.074H1110.98C1116.08 316.074 1118.37 318.008 1118.37 321.963C1118.37 326.006 1115.91 328.027 1110.98 328.027H1102.28V316.074ZM1173.21 336.377C1173.21 332.422 1171.01 329.609 1167.41 328.643C1170.57 327.412 1172.42 324.863 1172.42 321.436C1172.42 316.074 1168.64 312.998 1162.05 312.998H1149.22V345.078H1162.58C1169.34 345.078 1173.21 341.914 1173.21 336.377ZM1161.52 316.074C1166.36 316.074 1168.82 317.92 1168.82 321.611C1168.82 325.303 1166.36 327.236 1161.52 327.236H1152.91V316.074H1161.52ZM1169.52 336.289C1169.52 340.156 1167.23 342.002 1162.22 342.002H1152.91V330.4H1162.22C1167.15 330.4 1169.52 332.334 1169.52 336.289ZM1201.34 342.002H1184.81V330.4H1200.46V327.236H1184.81V316.074H1201.34V312.998H1181.12V345.078H1201.34V342.002ZM1220.76 316.162H1231.92V312.998H1205.82V316.162H1216.98V345.078H1220.76V316.162ZM1247.92 316.162H1259.08V312.998H1232.98V316.162H1244.14V345.078H1247.92V316.162ZM1283.78 342.002H1267.25V330.4H1282.9V327.236H1267.25V316.074H1283.78V312.998H1263.56V345.078H1283.78V342.002ZM1312.78 334.268C1311.9 331.807 1310.58 330.576 1308.74 330.312C1312.87 329.082 1315.15 326.094 1315.15 321.963C1315.15 316.162 1311.29 312.998 1304.43 312.998H1291.69V345.078H1295.38V331.104H1303.38C1306.45 331.104 1308.04 331.807 1309 334.443L1312.96 345.078H1316.82L1312.78 334.268ZM1295.38 316.074H1304.08C1309.18 316.074 1311.46 318.008 1311.46 321.963C1311.46 326.006 1309 328.027 1304.08 328.027H1295.38V316.074ZM1366.31 336.377C1366.31 332.422 1364.11 329.609 1360.51 328.643C1363.67 327.412 1365.52 324.863 1365.52 321.436C1365.52 316.074 1361.74 312.998 1355.14 312.998H1342.31V345.078H1355.67C1362.44 345.078 1366.31 341.914 1366.31 336.377ZM1354.62 316.074C1359.45 316.074 1361.91 317.92 1361.91 321.611C1361.91 325.303 1359.45 327.236 1354.62 327.236H1346V316.074H1354.62ZM1362.62 336.289C1362.62 340.156 1360.33 342.002 1355.32 342.002H1346V330.4H1355.32C1360.24 330.4 1362.62 332.334 1362.62 336.289ZM1373.95 332.51C1373.95 341.035 1378.35 345.43 1386.7 345.43C1395.05 345.43 1399.44 340.947 1399.44 332.51V312.998H1395.75V332.861C1395.75 339.102 1392.67 342.266 1386.7 342.266C1380.72 342.266 1377.64 339.102 1377.64 332.861V312.998H1373.95V332.51ZM1405.33 341.387C1408.23 344.111 1412.27 345.43 1417.28 345.43C1424.49 345.43 1429.06 341.826 1429.06 336.377C1429.06 332.686 1426.78 330.488 1423.52 329.434C1421.94 328.906 1419.83 328.203 1417.11 327.588C1412.01 326.357 1409.55 325.039 1409.55 321.787C1409.55 318.096 1412.54 315.811 1417.55 315.811C1421.15 315.811 1424.14 317.041 1427.13 319.59L1428.62 316.689C1425.98 314.053 1422.03 312.646 1417.55 312.646C1410.52 312.646 1405.86 316.426 1405.86 321.963C1405.86 325.742 1408.05 328.027 1411.22 329.346C1412.8 329.961 1414.82 330.488 1417.28 331.104C1422.56 332.334 1425.28 333.125 1425.37 336.553C1425.46 340.156 1422.47 342.266 1417.28 342.266C1412.98 342.266 1409.9 341.211 1406.65 338.574L1405.33 341.387ZM1438.9 312.998H1435.21V345.078H1438.9V312.998ZM1449.63 312.998H1446.81V345.078H1450.24V319.326L1469.67 345.078H1472.48V312.998H1468.96V338.838L1449.63 312.998ZM1500.6 342.002H1484.08V330.4H1499.72V327.236H1484.08V316.074H1500.6V312.998H1480.39V345.078H1500.6V342.002ZM1506.76 341.387C1509.66 344.111 1513.7 345.43 1518.71 345.43C1525.92 345.43 1530.49 341.826 1530.49 336.377C1530.49 332.686 1528.2 330.488 1524.95 329.434C1523.37 328.906 1521.26 328.203 1518.53 327.588C1513.44 326.357 1510.97 325.039 1510.97 321.787C1510.97 318.096 1513.96 315.811 1518.97 315.811C1522.58 315.811 1525.56 317.041 1528.55 319.59L1530.05 316.689C1527.41 314.053 1523.46 312.646 1518.97 312.646C1511.94 312.646 1507.28 316.426 1507.28 321.963C1507.28 325.742 1509.48 328.027 1512.64 329.346C1514.23 329.961 1516.25 330.488 1518.71 331.104C1523.98 332.334 1526.71 333.125 1526.79 336.553C1526.88 340.156 1523.89 342.266 1518.71 342.266C1514.4 342.266 1511.33 341.211 1508.07 338.574L1506.76 341.387ZM1534.88 341.387C1537.78 344.111 1541.82 345.43 1546.83 345.43C1554.04 345.43 1558.61 341.826 1558.61 336.377C1558.61 332.686 1556.33 330.488 1553.07 329.434C1551.49 328.906 1549.38 328.203 1546.66 327.588C1541.56 326.357 1539.1 325.039 1539.1 321.787C1539.1 318.096 1542.09 315.811 1547.1 315.811C1550.7 315.811 1553.69 317.041 1556.68 319.59L1558.17 316.689C1555.54 314.053 1551.58 312.646 1547.1 312.646C1540.07 312.646 1535.41 316.426 1535.41 321.963C1535.41 325.742 1537.61 328.027 1540.77 329.346C1542.35 329.961 1544.37 330.488 1546.83 331.104C1552.11 332.334 1554.83 333.125 1554.92 336.553C1555.01 340.156 1552.02 342.266 1546.83 342.266C1542.53 342.266 1539.45 341.211 1536.2 338.574L1534.88 341.387ZM1581.2 329.082C1581.2 339.102 1586.82 345.43 1595.79 345.43C1604.67 345.43 1610.38 339.102 1610.38 328.994C1610.38 318.975 1604.84 312.646 1595.79 312.646C1586.74 312.646 1581.2 318.975 1581.2 329.082ZM1606.51 328.994C1606.51 337.432 1602.56 342.266 1595.79 342.266C1588.93 342.266 1584.98 337.432 1584.98 328.994C1584.98 320.557 1588.93 315.811 1595.79 315.811C1602.56 315.811 1606.51 320.557 1606.51 328.994ZM1620.84 345.078V331.016H1629.89C1636.48 331.016 1640.44 327.588 1640.44 321.963C1640.44 316.426 1636.57 312.998 1629.89 312.998H1617.15V345.078H1620.84ZM1620.84 316.074H1629.63C1634.37 316.074 1636.75 318.184 1636.75 321.963C1636.75 325.83 1634.37 327.939 1629.63 327.939H1620.84V316.074ZM1668.56 342.002H1652.04V330.4H1667.68V327.236H1652.04V316.074H1668.56V312.998H1648.35V345.078H1668.56V342.002ZM1697.57 334.268C1696.69 331.807 1695.37 330.576 1693.52 330.312C1697.65 329.082 1699.94 326.094 1699.94 321.963C1699.94 316.162 1696.07 312.998 1689.22 312.998H1676.47V345.078H1680.16V331.104H1688.16C1691.24 331.104 1692.82 331.807 1693.79 334.443L1697.74 345.078H1701.61L1697.57 334.268ZM1680.16 316.074H1688.87C1693.96 316.074 1696.25 318.008 1696.25 321.963C1696.25 326.006 1693.79 328.027 1688.87 328.027H1680.16V316.074ZM1723.67 312.998H1720.42L1706.36 345.078H1710.22L1713.74 336.816H1730.53L1734.04 345.078H1737.82L1723.67 312.998ZM1729.21 333.74H1715.06L1722.09 317.305L1729.21 333.74ZM1754.08 316.162H1765.24V312.998H1739.14V316.162H1750.3V345.078H1754.08V316.162ZM1773.42 312.998H1769.72V345.078H1773.42V312.998ZM1780.18 329.082C1780.18 339.102 1785.81 345.43 1794.77 345.43C1803.65 345.43 1809.36 339.102 1809.36 328.994C1809.36 318.975 1803.83 312.646 1794.77 312.646C1785.72 312.646 1780.18 318.975 1780.18 329.082ZM1805.5 328.994C1805.5 337.432 1801.54 342.266 1794.77 342.266C1787.92 342.266 1783.96 337.432 1783.96 328.994C1783.96 320.557 1787.92 315.811 1794.77 315.811C1801.54 315.811 1805.5 320.557 1805.5 328.994ZM1818.94 312.998H1816.13V345.078H1819.56V319.326L1838.98 345.078H1841.79V312.998H1838.28V338.838L1818.94 312.998ZM1847.95 341.387C1850.85 344.111 1854.89 345.43 1859.9 345.43C1867.11 345.43 1871.68 341.826 1871.68 336.377C1871.68 332.686 1869.39 330.488 1866.14 329.434C1864.56 328.906 1862.45 328.203 1859.72 327.588C1854.63 326.357 1852.17 325.039 1852.17 321.787C1852.17 318.096 1855.15 315.811 1860.16 315.811C1863.77 315.811 1866.76 317.041 1869.74 319.59L1871.24 316.689C1868.6 314.053 1864.65 312.646 1860.16 312.646C1853.13 312.646 1848.47 316.426 1848.47 321.963C1848.47 325.742 1850.67 328.027 1853.84 329.346C1855.42 329.961 1857.44 330.488 1859.9 331.104C1865.17 332.334 1867.9 333.125 1867.99 336.553C1868.07 340.156 1865.09 342.266 1859.9 342.266C1855.59 342.266 1852.52 341.211 1849.27 338.574L1847.95 341.387Z" fill="black"/>
</g>
</g>
<defs>
<filter id="filter0_d" x="464" y="133.04" width="1385.8" height="126.24" filterUnits="userSpaceOnUse" color-interpolation-filters="sRGB">
<feFlood flood-opacity="0" result="BackgroundImageFix"/>
<feColorMatrix in="SourceAlpha" type="matrix" values="0 0 0 0 0 0 0 0 0 0 0 0 0 0 0 0 0 0 127 0"/>
<feOffset dy="4"/>
<feGaussianBlur stdDeviation="2"/>
<feColorMatrix type="matrix" values="0 0 0 0 0 0 0 0 0 0 0 0 0 0 0 0 0 0 0.25 0"/>
<feBlend mode="normal" in2="BackgroundImageFix" result="effect1_dropShadow"/>
<feBlend mode="normal" in="SourceGraphic" in2="effect1_dropShadow" result="shape"/>
</filter>
<clipPath id="clip0">
<rect width="1500" height="550" fill="white" transform="translate(427)"/>
</clipPath>
</defs>
</svg>
